<?xml version="1.0" encoding="UTF-8"?>
<svg id="_Слой_1" data-name="Слой 1" xmlns="http://www.w3.org/2000/svg" viewBox="0 0 588.2 586.67">
  <defs>
    <style>
      .cls-1 {
        fill: #fff;
      }
    </style>
  </defs>
  <path class="cls-1" d="M588.2,42.08c-9.72,40.67-36.42,70.36-64.24,99.29-6.37,6.62-13.22,12.78-19.55,19.44-1.4,1.48-2.58,4.48-2.07,6.27,6.37,22.23,13.06,44.37,19.7,66.52,.21,.71,.7,1.34,1.12,2.13,11.79-7.1,23.32-7.35,34.04,1.69,11.06,9.33,12.46,25.88,3.19,37.15-4,4.86-8.69,9.16-13.14,13.64q-7.71,7.77-2.89,18.27c7.36-3.92,15.11-5.13,23.18-2.49,17.41,5.7,24.35,27.19,13.11,41.67-4.43,5.71-9.77,10.78-15.09,15.72-3.21,2.98-3.99,5.63-2.66,9.94,7.72,25.02,14.92,50.2,22.75,75.19,2.24,7.16,1.24,12.38-4.51,17.31-5.5,4.73-10.36,10.21-15.51,15.34-7.67,7.63-12.21,7.31-18.55-1.35-28.26-38.61-56.51-77.23-84.76-115.84-9.61-13.13-19.23-26.25-28.8-39.4-1.12-1.54-2.2-3.15-2.99-4.87-1.89-4.1-.79-8.2,2.94-9.88,2.79-1.26,6.87-.8,9.97,.17,1.99,.62,3.38,3.47,4.84,5.47,34.62,47.24,69.21,94.5,103.81,141.75,1.69,2.31,3.39,4.61,5.76,7.84,3.36-3.57,6.81-6.57,9.32-10.23,1.07-1.56,.68-4.63,.06-6.75-14.6-49.3-29.34-98.55-44.04-147.82-11.53-38.65-23.04-77.3-34.57-115.94-.43-1.43-.96-2.82-1.61-4.7-27.71,25.37-55.04,50.4-82.65,75.67,5.79,7.96,11.61,15.77,17.22,23.73,3.49,4.95,2.99,9.66-.97,12.76-4.01,3.14-9.22,2.24-12.97-2.65-5.46-7.14-10.68-14.46-16.26-22.06-1.43,1.08-2.79,1.98-4.01,3.03-47.4,40.89-94.77,81.82-142.24,122.64-2.66,2.28-3.03,4.1-1.77,7.3,7.36,18.67,14.36,37.48,21.76,56.14,2.36,5.95,1.56,10.46-3.19,14.9-7.69,7.19-14.91,14.88-22.43,22.25-5.26,5.15-9.77,5.24-14.93,.1-42.82-42.75-85.61-85.53-128.34-128.36-4.89-4.9-4.83-9.53,.03-14.5,7.9-8.08,16.01-15.94,23.91-24.01,3.78-3.86,7.85-3.97,12.58-2.12,18.88,7.35,37.83,14.5,56.68,21.92,3.33,1.31,5.32,1.04,7.79-1.83,40.55-47.19,81.24-94.27,121.88-141.38,1.23-1.43,2.39-2.92,3.77-4.62-23.7-17.35-47.16-34.54-70.62-51.72-47.26-34.59-94.52-69.18-141.77-103.77-9.35-6.84-9.66-11.04-1.45-19.27,4.87-4.88,10.09-9.46,14.53-14.7,5.17-6.1,10.61-7.18,18.26-4.76,24.96,7.89,50.17,15,75.19,22.7,3.92,1.21,6.32,.55,8.95-2.37,3.83-4.27,7.98-8.26,12.14-12.22,10.51-10.02,24.77-11.5,35.61-3.79,11.08,7.87,14.33,21.27,8.46,34.79-.29,.68-.52,1.38-.77,2.06q10.39,4.84,17.74-2.51c3.52-3.52,7-7.08,10.57-10.55,10.93-10.61,25.31-12.07,36.44-3.73,11.48,8.61,14.08,22.78,6.67,36.34-.27,.49-.43,1.04-.83,2.02,5.55,1.65,11.02,3.29,16.49,4.91,16.67,4.96,33.4,9.74,49.97,15.01,4.36,1.39,6.81,.32,9.94-2.68,16.99-16.28,33.68-32.94,51.57-48.18,16.33-13.91,34.45-25.69,55.47-31.52,7.22-2,15.18-3.06,22.58-2.31,17.24,1.74,26.45,12.92,30.21,29.2v12.64ZM180.38,422.27c1.36-1.08,2.7-2.11,4-3.2,22.7-19.1,45.46-38.12,68.07-57.33,87.97-74.74,175.24-150.27,257.71-231.13,19.19-18.82,36.95-38.94,49.61-62.83,4.77-8.99,8.57-18.89,10.6-28.82,2.91-14.26-7.15-23.87-21.58-21.74-5.79,.85-11.96,2.11-16.94,4.96-14.38,8.24-28.97,16.42-42.17,26.36-27.18,20.46-49.48,46.22-72.69,70.86-74.3,78.89-144.7,161.24-214.72,243.92-12.35,14.58-24.51,29.32-36.8,44.04,5.08,5.08,9.89,9.89,14.92,14.92Zm154.09-238.81c25.36-27.7,50.36-55.01,75.72-82.72-2.55-.87-4.5-1.6-6.48-2.19-84.78-25.27-169.62-50.31-254.25-76.07-10.87-3.31-18.19-2.47-23.67,8.23,69.14,50.61,138.72,101.54,208.68,152.75Zm-106.75,222.08c-12.17,10.16-23.53,19.65-34.05,28.44,13.33,13.39,26.21,26.33,39.62,39.79,3.91-4.12,8.35-8.6,12.52-13.31,.92-1.04,1.64-3.17,1.21-4.33-6.19-16.6-12.59-33.12-19.3-50.59Zm-45.48-45.46c-17.39-6.69-33.76-13.01-50.16-19.22-1.07-.4-2.91-.49-3.6,.15-5.15,4.71-10.11,9.64-13.97,13.38,13.66,13.66,26.55,26.56,39.53,39.54,8.84-10.61,18.23-21.87,28.21-33.84ZM311.51,53c7.08,2.11,12.89,3.87,18.73,5.54,1.01,.29,2.79,.58,3.13,.11,2.33-3.32,5.64-6.69,6.07-10.35,.31-2.62-2.76-7.13-5.38-8.22-2.86-1.18-7.62-.42-10.36,1.35-4.34,2.81-7.69,7.15-12.19,11.57Zm223.33,223.3c4.56-4.77,8.58-8.53,12.06-12.73,3.38-4.08,3-8.66-.56-12.45-3.35-3.57-7.61-4.27-11.93-1.64-4.12,2.5-7.01,5.39-4.54,11.03,2.04,4.66,3.11,9.75,4.97,15.79ZM240.98,31.97c7.08,2.12,12.69,3.94,18.39,5.41,1.41,.36,3.49,.12,4.6-.72,4.39-3.33,5.04-9.61,1.77-13.8-3.28-4.2-8.86-5.2-13.21-1.77-3.83,3.02-7.15,6.69-11.54,10.88Zm314.85,314.9c4.33-4.61,8.63-7.88,11.01-12.21,1.49-2.7,.98-7.37-.27-10.49-1.55-3.87-5.75-4.75-9.84-3.89-5.46,1.15-7.5,4.63-5.94,9.9,1.51,5.09,3.06,10.17,5.04,16.7Z"/>
  <path class="cls-1" d="M0,137.44c1.93-2.35,3.67-4.88,5.8-7.03,22.51-22.61,45.08-45.17,67.65-67.72,1.35-1.34,2.73-2.69,4.27-3.79,3.82-2.73,7.68-2.36,10.92,.85,3.25,3.24,3.34,7.16,.88,10.96-1.02,1.58-2.45,2.92-3.79,4.27-22.55,22.57-45.12,45.13-67.69,67.68-7.39,7.39-10.81,7.47-18.04,.52,0-1.91,0-3.83,0-5.74Z"/>
  <path class="cls-1" d="M448.04,586.67c-5.26-5.94-5.34-9.77,.17-15.3,23.49-23.58,47.02-47.11,70.59-70.6,5.47-5.45,11.75-5.4,15.04-.07,3.03,4.9,.76,8.74-2.72,12.23-12.57,12.59-25.14,25.17-37.73,37.74-12.04,12.01-24.11,24-36.16,36h-9.19Z"/>
  <path class="cls-1" d="M129.4,102.36c-1.98,3.14-3.1,5.85-5,7.79-14.37,14.58-28.87,29.05-43.4,43.48-4.69,4.66-9.95,5.06-13.65,1.32-3.72-3.75-3.24-8.81,1.54-13.62,14.44-14.52,28.95-28.96,43.43-43.45,3.06-3.06,6.73-5.16,10.74-2.74,2.49,1.5,4.06,4.52,6.35,7.22Z"/>
  <path class="cls-1" d="M443.44,524.12c-2.87-2.16-6.14-3.44-7.21-5.75-1.1-2.36-.4-5.79,.21-8.61,.32-1.47,2.05-2.68,3.26-3.89,13.78-13.82,27.58-27.62,41.4-41.41,1.21-1.21,2.46-2.44,3.89-3.36,3.68-2.38,7.41-2.06,10.49,.93,3.28,3.17,3.81,7.16,1.09,10.9-2,2.76-4.59,5.11-7.02,7.55-12.56,12.61-25.1,25.23-37.79,37.71-2.2,2.17-5.08,3.65-8.32,5.93Z"/>
  <path class="cls-1" d="M133.28,172.45c-2.58-2.04-6.31-3.54-7.02-5.93-.86-2.93-.24-7.43,1.61-9.79,4.32-5.53,9.76-10.2,14.75-15.21,5.26-5.28,10.48-10.61,15.83-15.8,4.75-4.6,10-4.91,13.62-1.06,3.61,3.84,3.31,8.51-1.28,13.18-9.91,10.09-19.92,20.1-30.04,29.98-1.82,1.77-4.39,2.76-7.48,4.63Z"/>
  <path class="cls-1" d="M428.98,463.89c-2.55-2.16-6.23-3.77-6.84-6.16-.76-2.98-.05-7.49,1.87-9.79,5.36-6.44,11.67-12.09,17.61-18.04,4.32-4.33,8.58-8.73,13-12.95,4.72-4.5,9.38-4.83,13.19-1.18,3.7,3.55,3.58,8.76-.77,13.2-10.04,10.24-20.18,20.37-30.44,30.38-1.8,1.75-4.4,2.67-7.62,4.54Z"/>
</svg>