<?xml version="1.0" encoding="UTF-8"?>
<svg id="_Слой_1" data-name="Слой 1" xmlns="http://www.w3.org/2000/svg" viewBox="0 0 551.31 363.71">
  <defs>
    <style>
      .cls-1 {
        fill: #fff;
      }
    </style>
  </defs>
  <path class="cls-1" d="M128.29,163.84c-5.79,.5-13.67,1.75-21.56,1.74-10.41-.01-20.98-.08-31.19-1.84-11.27-1.95-19.03-9.71-25.06-19.37-6.47-10.37-13.39-20.47-20.24-30.6-6.31-9.33-13.38-18.21-19.06-27.9C4.95,75.26,.99,63.88,7.03,51.45c.5-1.03-.54-3.26-1.47-4.46C-.76,38.79-1.8,28.87,2.99,20.46c4.53-7.95,12.92-11.86,23.46-9.98,4.95,.88,10.24,2.39,14.32,5.16,9.89,6.73,20.81,9.77,32.38,10.24,19.43,.79,38.65,2.8,57.52,7.55,4.95,1.25,9.8,3.1,14.51,5.08,3.44,1.45,6.74,3.36,9.86,5.43,28.08,18.59,56.84,15.53,84.88,1.05,13.04-6.73,24.42-16.74,36.38-25.5,10.92-7.99,22.07-15.42,35.59-18.28,17.54-3.7,33.3,1.49,48.18,10.14,5.23,3.04,10.48,4.54,16.49,5.48,7.86,1.23,15.66,4.07,22.94,7.4,11.47,5.24,23.53,9.31,34.8,14.42,23.06,10.45,45.96,22.63,60.94,44.76,3.88,5.74,7.6,11.6,11.71,17.16,5.12,6.92,11.27,12.06,19.96,14.92,25.22,8.3,32.64,39.34,13.92,56.13-.88,.79-1.74,1.72-2.79,2.19-26.6,11.99-47.97,33.74-77,41.29-2.38,.62-5.11,2.88-6.17,5.09-8.1,17.04-23.26,22.71-40.21,25.75-6.03,1.08-12.19,1.8-18.03,3.55-15.71,4.72-26.4,11.5-27.03,30.55-.07,2.16-.61,4.3-.92,6.46-1.09,7.53-4.36,14.01-10.03,19.03-4.24,3.75-5.84,8.29-5.63,13.72,.09,2.18,.07,4.36,.29,6.53,2.06,20.54-6.82,32.82-27.17,36.85-13.09,2.59-25.63,.61-37.19-6.22-10.74-6.34-14.56-17.58-9.73-29.13,1.97-4.71,4.89-9.01,7.33-13.53,3.1-5.73,6.68-11.27,9.11-17.28,6.43-15.92,3.83-28.3-8.96-39.73-7.49-6.68-16.07-12.14-24.19-18.12-12.25-9.02-26-16.6-36.37-27.41-9.46-9.86-19.95-15.33-32.41-18.95-14.79-4.3-28.17-10.97-39.22-22.33-6.31-6.48-15.54-6.06-26.23-6.09Zm2.23-19.31c16.03-.08,30.42,3.28,42,15.72,4,4.29,9.99,7.07,15.52,9.52,7.2,3.18,14.8,5.53,22.33,7.9,9.93,3.12,18.91,6.97,25.22,16.26,3.66,5.39,9.48,9.52,14.89,13.45,8.95,6.51,18.5,12.18,27.51,18.62,7.71,5.51,15.45,11.11,22.38,17.54,13.42,12.43,20.8,27.88,16.63,46.32-2.26,10.03-7.19,19.52-11.41,29.03-2.07,4.66-5.26,8.82-7.95,13.2-2.5,4.05-1.88,7.58,2.8,8.86,6,1.64,12.35,3.68,18.38,3.24,12.63-.92,17.81-5.85,15.74-17.97-1.99-11.67-.94-23.56,8.84-32.37,4.74-4.27,6.65-9.42,7.39-15.6,1.21-10.19,2.19-20.62,9.77-28.66,9.19-9.75,20.19-16.43,33.41-19.19,9.28-1.94,18.56-3.86,27.83-5.86,6.76-1.46,11.78-5.16,14.99-11.44,4.46-8.72,11.73-13.81,20.84-17.38,11.73-4.6,23.98-9,34.16-16.12,11.06-7.74,21.94-15.38,34.21-21.05,5.63-2.61,7.77-7.98,5.86-13.87-1.9-5.85-5.83-10.12-11.78-11.56-10.61-2.56-18.4-9.06-24.94-17.16-5.21-6.44-9.87-13.36-14.4-20.32-12.73-19.56-32.67-30.13-52.73-38.96-11.76-5.18-24.08-9.52-35.86-15.04-6.17-2.89-12.92-5.91-19.51-6.15-7.36-.27-13.14-2.41-19.16-6.18-23.19-14.52-39.07-13.84-61.27,2.21-6.73,4.87-13.36,9.9-19.79,15.16-26.58,21.7-56.78,31.32-91.06,27.91-10.08-1-19-4.82-27.79-9.58-8.8-4.77-17.61-10.68-27.13-12.7-17.68-3.75-35.87-5.23-53.89-7.29-14.69-1.68-28.94-4.32-41.26-13.3-1.7-1.24-3.88-2.22-5.94-2.46-1.87-.22-3.87,.75-5.81,1.2,.6,1.73,.87,3.67,1.86,5.13,1.54,2.27,3.82,4.04,5.34,6.32,2.94,4.43,4.11,9.83,.72,13.92-5.91,7.14-3.98,13.81,.1,20.17,6.51,10.13,13.77,19.79,20.64,29.7,5.74,8.28,12.45,16.1,16.81,25.07,5.51,11.35,14.04,16.06,25.85,16.38,4.54,.12,9.1-.2,13.63-.52,8.68-.61,17.35-1.37,26.02-2.07Z"/>
  <path class="cls-1" d="M466.27,265.18c3.73-.36,7.48-.55,11.17-1.11,11.78-1.78,19.82,3.12,22.39,14.87,1.52,6.94,4.48,12.37,9.98,16.86,12.29,10.05,13.72,25.35,.77,34.75-1.7,1.23-2.62,3.84-3.39,5.99-4.41,12.3-15.65,16.7-27.17,10.45-1.72-.93-3.55-1.97-4.8-3.42-6.18-7.11-12.81-13.37-22.84-14.28-.19-.02-.42-.08-.55-.21-8.18-8.02-17.53-15.19-24.18-24.32-6.44-8.84-1.93-19.82,7.76-25.8,3.62-2.23,7.01-4.98,10.06-7.96,5.23-5.12,8.61-6.33,20.8-5.83Zm-20.57,30.95c4.3,4.71,8.67,9.63,13.22,14.37,.99,1.03,2.59,1.82,4.01,2.02,8.77,1.25,15.41,5.92,20.72,12.69,1.45,1.85,2.38,4.11,3.22,5.61,5.15-7.26,8.97-12.64,13.21-18.62-9.96-6.91-17.1-16.55-18.91-28.34-6.54,0-12.25-.09-17.95,.06-1.65,.04-3.64,.33-4.84,1.29-4.56,3.63-8.87,7.59-12.68,10.91Z"/>
</svg>