<?xml version="1.0" encoding="UTF-8"?>
<svg id="_Слой_1" data-name="Слой 1" xmlns="http://www.w3.org/2000/svg" xmlns:xlink="http://www.w3.org/1999/xlink" viewBox="0 0 373.52 373.66">
  <defs>
    <style>
      .cls-1 {
        fill: url(#_Безымянный_градиент_4-2);
      }

      .cls-2 {
        fill: url(#_Безымянный_градиент_4);
      }

      .cls-3 {
        fill: url(#_Безымянный_градиент_4-4);
      }

      .cls-4 {
        fill: url(#_Безымянный_градиент_4-3);
      }
    </style>
    <linearGradient id="_Безымянный_градиент_4" data-name="Безымянный градиент 4" x1="186.72" y1="41.89" x2="186.72" y2="332.14" gradientUnits="userSpaceOnUse">
      <stop offset="0" stop-color="#fff"/>
      <stop offset="1" stop-color="#02b0a4"/>
    </linearGradient>
    <linearGradient id="_Безымянный_градиент_4-2" data-name="Безымянный градиент 4" x1="160.27" y1="0" x2="160.27" y2="286.5" xlink:href="#_Безымянный_градиент_4"/>
    <linearGradient id="_Безымянный_градиент_4-3" data-name="Безымянный градиент 4" x1="213.21" y1="87.7" x2="213.21" y2="373.66" xlink:href="#_Безымянный_градиент_4"/>
    <linearGradient id="_Безымянный_градиент_4-4" data-name="Безымянный градиент 4" x1="186.8" y1="94.69" x2="186.8" y2="279.66" xlink:href="#_Безымянный_градиент_4"/>
  </defs>
  <path class="cls-2" d="M102.23,71.42c4.72,1.92,9.06,3.39,13.13,5.42,3.55,1.77,6.26,1.49,9.97-.29,9.16-4.38,18.73-7.94,28.25-11.54,2.41-.91,4.07-1.88,4.84-4.45,.85-2.85,2.14-5.58,3.13-8.39,2.31-6.55,7.11-9.85,13.84-10.08,7.48-.26,14.97-.25,22.45-.01,6.89,.21,12.24,3.42,13.97,10.3,2.15,8.55,6.86,12.98,15.67,15.17,7.94,1.97,15.19,6.69,22.84,9.97,1.49,.64,3.57,.76,5.1,.26,3.3-1.08,6.39-2.77,9.61-4.11,5.71-2.38,11.12-1.75,15.64,2.49,5.82,5.46,11.47,11.12,16.94,16.92,4.22,4.48,5.15,9.81,2.65,15.57-1.44,3.31-3.13,6.53-4.3,9.93-.49,1.41-.44,3.5,.27,4.76,5.71,10.02,10,20.58,13.12,31.67,.37,1.3,1.71,2.7,2.96,3.29,3.37,1.59,6.94,2.75,10.41,4.12,5.88,2.33,8.77,6.94,8.96,13.02,.25,7.73,.24,15.47,0,23.2-.19,6.27-3.02,11.55-9.25,13.11-9.43,2.37-14.23,7.68-16.5,17.25-1.78,7.47-6.11,14.38-9.62,21.38-1.07,2.14-1.29,3.79-.24,5.89,1.5,3,2.78,6.12,4.14,9.2,2.52,5.74,1.67,11.1-2.54,15.59-5.46,5.82-11.1,11.49-16.93,16.93-4.46,4.16-9.78,5.24-15.57,2.64-3.18-1.43-6.43-2.71-9.54-4.28-2.02-1.02-3.6-.8-5.52,.33-9.7,5.73-20.07,9.89-30.92,12.95-1.49,.42-3.08,1.96-3.8,3.4-1.61,3.21-2.68,6.69-4.02,10.04-2.35,5.85-6.83,8.8-13.01,8.92-7.86,.15-15.72,.18-23.57-.01-6.02-.15-10.4-3.09-12.72-8.77-1.41-3.46-2.54-7.04-4.17-10.39-.65-1.34-2.16-2.77-3.56-3.16-10.98-3.07-21.38-7.4-31.33-12.95-1.35-.75-3.54-.77-5.05-.27-3.29,1.09-6.41,2.71-9.59,4.15-5.92,2.68-11.31,1.55-15.88-2.74-5.72-5.38-11.28-10.95-16.66-16.67-4.21-4.47-5.83-10.18-2.54-15.47,5.29-8.52,4.44-15.78-.66-24.22-3.98-6.58-5.58-14.58-8.47-21.85-.59-1.5-1.96-3.07-3.38-3.79-3.09-1.56-6.46-2.59-9.7-3.86-6.16-2.41-9.21-7.1-9.36-13.55-.18-7.6-.21-15.22,.01-22.83,.19-6.25,2.93-11.59,9.2-13.11,9.69-2.34,14.31-7.97,16.63-17.6,1.79-7.47,6.4-14.24,9.53-21.42,.65-1.49,.79-3.58,.29-5.1-1.09-3.29-2.75-6.4-4.16-9.58-2.54-5.73-1.74-11.1,2.47-15.6,5.54-5.91,11.22-11.73,17.26-17.12,2.44-2.17,6-3.09,9.27-4.68Zm-.03,12.23c-.76,.51-1.69,.94-2.37,1.61-4.97,4.9-10.02,9.75-14.74,14.88-.96,1.04-1.33,3.46-.84,4.84,1.54,4.32,3.57,8.48,5.53,12.65,1.33,2.83,1.29,5.42-.44,8.12-7.13,11.11-12.05,23.17-14.96,36.03-.68,2.99-2.27,4.8-5.12,5.82-4.33,1.56-8.57,3.38-12.89,4.96-2.16,.78-3.17,1.99-3.12,4.4,.12,6.73,.13,13.47,0,20.2-.05,2.57,1.01,3.81,3.34,4.63,4.34,1.52,8.59,3.31,12.91,4.92,2.67,1,4.24,2.77,4.87,5.61,2.91,13,7.93,25.14,15.09,36.37,1.66,2.6,1.64,5.09,.41,7.77-1.92,4.19-3.68,8.45-5.7,12.59-1.05,2.15-.67,3.7,.96,5.31,4.81,4.72,9.59,9.46,14.28,14.3,1.77,1.83,3.45,1.95,5.66,.89,4.15-2,8.42-3.73,12.6-5.68,2.61-1.22,4.94-1.1,7.4,.46,11.25,7.12,23.34,12.25,36.37,15.09,2.94,.64,4.77,2.32,5.79,5.19,1.54,4.34,3.12,8.68,5.09,12.83,.64,1.35,2.54,2.9,3.92,2.96,6.97,.3,13.97,.3,20.94,0,1.39-.06,3.3-1.59,3.93-2.94,2.01-4.27,3.24-8.91,5.37-13.11,1-1.97,3.15-4.2,5.17-4.69,13.09-3.12,25.35-8.11,36.7-15.32,2.45-1.56,4.8-1.71,7.41-.49,4.29,2,8.56,4.06,13,5.67,1.4,.51,3.85,.23,4.88-.72,5.14-4.72,10.09-9.67,14.81-14.81,.94-1.02,1.19-3.47,.68-4.87-1.61-4.43-4.09-8.57-5.51-13.05-.69-2.19-.61-5.37,.52-7.27,6.82-11.44,12.02-23.47,14.94-36.47,.64-2.84,2.18-4.63,4.86-5.62,4.31-1.61,8.58-3.35,12.92-4.89,2.29-.81,3.4-2.06,3.35-4.65-.14-6.73-.12-13.47-.01-20.2,.04-2.37-.9-3.64-3.09-4.43-4.45-1.6-8.98-3.1-13.17-5.23-1.96-1-4.13-3.16-4.63-5.18-3.25-13.05-8.29-25.25-15.22-36.78-1.13-1.88-1.11-5.09-.4-7.3,1.44-4.48,3.91-8.62,5.51-13.06,.5-1.38,.13-3.8-.82-4.84-4.63-5.05-9.64-9.76-14.43-14.66-1.64-1.68-3.21-1.89-5.33-.87-4.15,1.99-8.29,4.14-12.67,5.47-2.33,.71-5.67,.72-7.64-.47-11.32-6.79-23.26-11.91-36.12-14.81-3.15-.71-4.97-2.42-6.03-5.41-1.54-4.34-3.11-8.69-5.09-12.83-.64-1.34-2.61-2.8-4.03-2.86-6.85-.3-13.72-.3-20.57,0-1.42,.06-3.4,1.52-4.04,2.85-1.99,4.14-3.56,8.49-5.1,12.83-1.06,2.98-2.86,4.71-6.02,5.42-12.87,2.89-24.79,8.06-36.12,14.81-1.98,1.18-5.32,1.18-7.64,.48-4.38-1.33-8.47-3.58-12.69-5.43-.79-.35-1.61-.63-2.63-1.02Z"/>
  <path class="cls-1" d="M308.89,44.97c0-4.97-.02-9.7,0-14.42,.03-4.44,2.35-7.24,5.87-7.16,3.39,.08,5.69,2.78,5.72,6.99,.06,9.23,.07,18.46,0,27.69-.04,4.65-2.24,6.74-6.98,6.76-9.23,.04-18.46,.04-27.69,0-4.35-.02-6.83-2.12-6.85-5.66-.02-3.47,2.49-5.71,6.82-5.83,4.17-.12,8.35-.02,12.52-.02l.45-1.17c-5.7-4.1-11.25-8.43-17.12-12.27-23.45-15.35-49.19-24.64-77.06-27.32C122.93,4.7,47.82,52.64,21.22,130.16c-16.96,49.43-12.11,97.37,13.01,143.23,.72,1.31,1.52,2.58,2.21,3.9,1.85,3.54,1.13,6.69-1.87,8.4-2.97,1.69-6.09,.73-8.14-2.85-2.79-4.86-5.55-9.75-7.98-14.79C3.79,237.61-2.06,205.44,.64,171.84,6.9,94.04,61.91,27.04,136.9,7.07c61.87-16.48,118.14-4.02,168.31,35.81,.78,.62,1.55,1.26,2.35,1.85,.17,.13,.46,.09,1.34,.24Z"/>
  <path class="cls-4" d="M64.53,328.58c0,5.69,.03,10.41,0,15.13-.03,4.55-2.22,7.12-5.9,7.04-3.51-.08-5.66-2.6-5.69-6.92-.05-9.11-.05-18.21,0-27.32,.03-5.05,2.23-7.24,7.36-7.27,8.98-.06,17.96-.05,26.94,0,4.57,.03,7.22,2.24,7.22,5.81,0,3.64-2.57,5.72-7.18,5.75-4.06,.03-8.13,0-12.19,0-.3,.45-.6,.9-.89,1.35,.87,.44,1.84,.74,2.58,1.33,27.04,21.68,57.68,34.75,92.23,38.11,85.52,8.32,163.66-45.14,186.46-128,12.84-46.64,6.84-91.29-16.73-133.55-.67-1.2-1.41-2.35-2.01-3.58-1.52-3.11-.74-6.22,1.92-7.84,2.84-1.74,6.23-1.06,8,2.23,4.19,7.78,8.51,15.53,12.01,23.63,12.03,27.87,16.97,57.15,14.07,87.27-6.19,64.24-36.99,113.52-92.45,146.8-25.19,15.11-52.77,23.15-82.16,24.79-48.68,2.71-91.87-11.54-129.86-41.93-.95-.76-1.93-1.47-3.72-2.82Z"/>
  <path class="cls-3" d="M248.59,118.1c5.42-5.04,10.61-9.88,15.82-14.68,1.09-1,2.31-2.61,3.48-2.62,2.14-.02,4.75,.37,6.32,1.63,2.29,1.86,1.87,4.71,.24,7.12-4.05,5.99-8.06,12.01-12.3,17.86-1.64,2.27-1.66,3.82,0,6.18,37.68,53.43,10.07,127.52-53.31,143.29-52.82,13.14-105.31-21.88-113.45-75.68-7.6-50.3,25.87-97.15,75.75-105.18,28.02-4.51,53.4,2.28,75.45,20.51,.84,.7,1.72,1.35,1.98,1.56Zm4.31,23.13c-.9,1.25-1.78,2.42-2.6,3.62-20.64,30.13-41.28,60.27-61.92,90.41-4.12,6.01-6.95,6.26-12.21,1.12-15.07-14.74-30.14-29.48-45.24-44.19-2.5-2.44-4.41-4.98-2.2-8.48,2.05-3.26,5.05-2.95,8.28-1.97,12.02,3.66,24.11,7.12,36.09,10.91,2.71,.86,4.27,.35,6.15-1.6,19.33-20,38.75-39.91,58.14-59.86,1.19-1.23,2.35-2.49,3.52-3.73-23.87-24.05-71.91-31.55-106.67-2.12-34.84,29.5-38.2,82.59-7.47,116.35,30.68,33.71,84.05,35.33,116.55,3.47,32.33-31.7,29.15-79.28,9.59-103.94Zm-71.64,84.05c14.1-20.6,27.94-40.82,41.79-61.04-.57-.5-1.14-1-1.71-1.5-.69,1.2-1.16,2.6-2.09,3.56-11.52,11.94-23.22,23.71-34.61,35.76-3.3,3.49-6.51,4.36-10.97,2.82-5.69-1.98-11.54-3.5-16.31-4.92,7.52,7.97,15.53,16.45,23.9,25.32Z"/>
</svg>