<?xml version="1.0" encoding="UTF-8"?>
<svg id="_Слой_1" data-name="Слой 1" xmlns="http://www.w3.org/2000/svg" xmlns:xlink="http://www.w3.org/1999/xlink" viewBox="0 0 408.74 336.73">
  <defs>
    <style>
      .cls-1 {
        fill: url(#_Безымянный_градиент_6-3);
      }

      .cls-2 {
        fill: url(#_Безымянный_градиент_6);
      }

      .cls-3 {
        fill: url(#_Безымянный_градиент_6-4);
      }

      .cls-4 {
        fill: url(#_Безымянный_градиент_6-2);
      }

      .cls-5 {
        fill: url(#_Безымянный_градиент_6-5);
      }
    </style>
    <linearGradient id="_Безымянный_градиент_6" data-name="Безымянный градиент 6" x1="184.05" y1="0" x2="184.05" y2="336.73" gradientUnits="userSpaceOnUse">
      <stop offset="0" stop-color="#fff"/>
      <stop offset="1" stop-color="#02b0a4"/>
    </linearGradient>
    <linearGradient id="_Безымянный_градиент_6-2" data-name="Безымянный градиент 6" x1="382.39" y1="204.79" x2="382.39" y2="240.92" xlink:href="#_Безымянный_градиент_6"/>
    <linearGradient id="_Безымянный_градиент_6-3" data-name="Безымянный градиент 6" x1="382.22" y1="74.68" x2="382.22" y2="112.41" xlink:href="#_Безымянный_градиент_6"/>
    <linearGradient id="_Безымянный_градиент_6-4" data-name="Безымянный градиент 6" x1="392" y1="150.24" x2="392" y2="166.41" xlink:href="#_Безымянный_градиент_6"/>
    <linearGradient id="_Безымянный_градиент_6-5" data-name="Безымянный градиент 6" x1="50.4" y1="175.24" x2="50.4" y2="191.09" xlink:href="#_Безымянный_градиент_6"/>
  </defs>
  <path class="cls-2" d="M0,151.23c2.29-7.45,3.61-15.39,7.05-22.27,11.82-23.64,31.46-36.55,57.84-37.38,26.19-.82,52.42-.16,78.63-.25,38.1-.12,74.08-8.67,107.14-27.93,20.28-11.81,37.18-27.43,50.14-47.15,2.55-3.89,5.03-7.85,7.88-11.51,3.6-4.61,8.73-5.61,14.04-4.08,5.17,1.49,8.68,5.06,9.46,10.69,.29,2.1,.45,4.23,.45,6.35,.03,31.8,.05,63.6-.04,95.4,0,2.75,.71,3.94,3.5,4.54,20.76,4.48,34.28,23.63,31.71,44.64-2.42,19.71-12.96,31.8-32.38,36.58-3.17,.78-2.76,2.59-2.76,4.65,0,31.93,.03,63.87-.06,95.8,0,2.87-.2,5.98-1.27,8.58-4.07,9.91-16.9,11.5-23.35,2.9-4.06-5.42-7.41-11.37-11.44-16.81-20.12-27.19-47.05-44.97-78.55-56.3-27.12-9.75-55.17-13.4-83.88-12.75-.78,.02-1.57,.09-2.97,.17,1.42,5.98,2.75,11.72,4.14,17.45,4.79,19.75,9.67,39.48,14.39,59.25,3.61,15.1-3.65,28.99-18.22,32.88-10.31,2.75-21.24,2.78-31.56-.25-9.83-2.88-15.31-10.47-17.7-20.37-6.89-28.54-13.9-57.04-20.71-85.6-.7-2.93-2-4.04-4.9-4.48-29.02-4.39-51.74-27.35-55.83-56.21-.11-.74-.5-1.45-.75-2.17,0-4.79,0-9.58,0-14.37Zm316.43,142.97V22.19c-40.77,58.69-99.09,81.63-167.22,85.44v101.05c68.08,3.9,126.39,26.66,167.22,85.52ZM132.73,107.51c-23.78,0-47.4-1.34-70.8,.33-31.47,2.25-51.97,32.63-44.32,62.95,5.69,22.57,25.68,37.92,49.96,38.09,20.48,.15,40.96,.05,61.44,.05,1.17,0,2.34-.11,3.74-.18v-17.64c-1.6,0-3.03,0-4.46,0-14.36,0-28.73,.03-43.09-.01-6.13-.02-9.83-3.19-9.73-8.15,.1-4.83,3.67-7.78,9.63-7.8,11.57-.04,23.14-.01,34.71-.01,4.23,0,8.46,0,12.92,0V107.51Zm-4.77,172.71c-.66-2.83-1.23-5.27-1.81-7.7q-1.84-7.77-9.76-8.51c-.4-.04-.79-.09-1.19-.16-3.83-.65-6.46-3.56-6.63-7.34-.18-3.92,2.33-7.13,6.31-7.98,1.64-.35,3.31-.56,5.22-.88-1.73-7.1-3.3-13.95-5.18-20.72-.25-.89-2.03-1.88-3.13-1.92-5.71-.19-11.43-.09-17.14-.09-5.67,0-11.35,0-17.34,0,.22,1.55,.29,2.58,.53,3.57,3.43,14.19,6.88,28.37,10.33,42.56,3.1,12.77,6.21,25.53,9.31,38.29,1.73,7.11,4.7,10.26,11.02,10.61,5.69,.31,11.45,.32,17.11-.21,6.14-.57,9.98-6.28,8.95-12.34-.27-1.57-.92-3.09-1.04-4.66-.36-4.67-2.11-6.9-7.43-6.51-4.95,.36-8.31-3.37-8.41-7.72-.11-4.31,3.07-7.44,8.15-8.05,.51-.06,1.03-.12,2.14-.26Zm204.91-97.34c11.53-1.66,19.52-12.44,19.19-25.69-.3-12.24-8.58-22.57-19.19-23.66v49.35Z"/>
  <path class="cls-4" d="M402.31,233.71c-1.8,2.46-2.93,5.43-5.04,6.5-2.1,1.07-5.31,.77-7.77,.1-1.86-.5-3.37-2.47-4.94-3.88-6.2-5.6-12.4-11.2-18.52-16.89-4.14-3.85-4.69-8.39-1.64-11.95,3.2-3.73,7.91-3.79,12.31,.13,7.13,6.35,14.21,12.76,21.13,19.33,1.72,1.64,2.73,4.02,4.46,6.66Z"/>
  <path class="cls-1" d="M369.66,112.41c-2.22-1.86-5.08-3.18-6-5.33-.93-2.17-.5-5.38,.38-7.74,.71-1.93,2.9-3.36,4.55-4.88,6.05-5.57,12.12-11.11,18.24-16.6,4.49-4.03,8.95-4.21,12.33-.62,3.31,3.5,2.83,8.28-1.43,12.23-7,6.49-14.03,12.95-21.21,19.24-1.69,1.48-4.03,2.21-6.85,3.7Z"/>
  <path class="cls-3" d="M392.08,166.41c-3.51-.2-6.98-.13-10.37-.66-4.04-.63-6.57-4.01-6.45-7.84,.13-4.03,3.06-7.32,7.33-7.49,6.23-.24,12.48-.23,18.71-.01,4.24,.15,7.23,3.42,7.44,7.42,.19,3.73-2.44,7.27-6.41,7.9-3.38,.54-6.86,.48-10.24,.68Z"/>
  <path class="cls-5" d="M50.73,175.24c4.4,.14,7.7,3.64,7.61,8.06-.09,4.32-3.7,7.84-7.98,7.78-4.39-.06-8.14-4.03-7.89-8.36,.25-4.31,3.9-7.62,8.26-7.48Z"/>
</svg>