<?xml version="1.0" encoding="UTF-8"?>
<svg id="_Слой_1" data-name="Слой 1" xmlns="http://www.w3.org/2000/svg" xmlns:xlink="http://www.w3.org/1999/xlink" viewBox="0 0 358.08 383.33">
  <defs>
    <style>
      .cls-1 {
        fill: url(#_Безымянный_градиент_18-4);
      }

      .cls-2 {
        fill: url(#_Безымянный_градиент_18);
      }

      .cls-3 {
        fill: url(#_Безымянный_градиент_18-6);
      }

      .cls-4 {
        fill: url(#_Безымянный_градиент_18-3);
      }

      .cls-5 {
        fill: url(#_Безымянный_градиент_18-5);
      }

      .cls-6 {
        fill: url(#_Безымянный_градиент_18-2);
      }
    </style>
    <linearGradient id="_Безымянный_градиент_18" data-name="Безымянный градиент 18" x1="270.03" y1="158.75" x2="270.03" y2="383.33" gradientUnits="userSpaceOnUse">
      <stop offset="0" stop-color="#fff"/>
      <stop offset="1" stop-color="#02b0a4"/>
    </linearGradient>
    <linearGradient id="_Безымянный_градиент_18-2" data-name="Безымянный градиент 18" x1="178.96" y1="0" x2="178.96" xlink:href="#_Безымянный_градиент_18"/>
    <linearGradient id="_Безымянный_градиент_18-3" data-name="Безымянный градиент 18" x1="155.87" y1="368.32" x2="155.87" y2="383.33" xlink:href="#_Безымянный_градиент_18"/>
    <linearGradient id="_Безымянный_градиент_18-4" data-name="Безымянный градиент 18" x1="202.01" y1="43.18" x2="202.01" y2="177.46" xlink:href="#_Безымянный_градиент_18"/>
    <linearGradient id="_Безымянный_градиент_18-5" data-name="Безымянный градиент 18" x1="201.96" y1="201.81" x2="201.96" y2="332.42" xlink:href="#_Безымянный_градиент_18"/>
    <linearGradient id="_Безымянный_градиент_18-6" data-name="Безымянный градиент 18" x1="350.39" y1="125.11" x2="350.39" y2="140.12" xlink:href="#_Безымянный_градиент_18"/>
  </defs>
  <path class="cls-2" d="M358.08,355.27c.08,13.94-4.45,23.64-18.13,28.06H187.19c-1.43-1.33-3.23-2.44-4.21-4.05-2.63-4.35,.24-10.07,5.28-10.87,1.47-.23,2.99-.14,4.49-.14,46.54-.01,93.09-.01,139.63-.01,8.34,0,10.48-2.11,10.48-10.34,0-62.88,0-125.76,0-188.64,0-7.04,2.62-10.64,7.67-10.52,4.88,.12,7.38,3.67,7.38,10.49,0,62.01-.21,124.02,.16,186.02Z"/>
  <path class="cls-6" d="M120.04,368.27c-3.62-.02-7.24-.01-10.86-.01-16.6,0-33.19,.02-49.79-.01-4.95,0-8.37-2.14-8.45-6.07-.25-11.07-.09-22.15-.09-33.16,15.3-4.24,22.82-12.35,22.96-24.8,.07-5.51-1.57-10.55-4.88-15.02-4.48-6.05-10.7-9.08-17.93-10.13v-25.09c16.11-2.58,22.54-14.27,22.83-24.47,.36-12.54-7.71-21.54-22.88-25.49v-24.82c14.48-3.36,22.2-11.48,22.83-24.03,.26-5.25-1.15-10.13-4.06-14.53-4.47-6.75-11.04-10.14-18.81-11.28v-24.91c14.91-3.85,22.45-11.86,22.88-24.37,.19-5.38-1.32-10.35-4.42-14.79-4.48-6.42-10.87-9.63-18.64-10.8,0-10.32-.02-20.41,0-30.5,.02-6.55,2.45-8.91,9.15-8.91H333.54c6.82,0,9.31,2.47,9.32,9.22,.02,19.34,0,38.68,0,58.01,0,5.74-.11,11.49,.08,17.22,.13,3.97,3.12,6.76,6.96,6.95,4.03,.2,7.3-2.42,7.9-6.41,.15-.98,.1-1.99,.1-2.99,.01-24.45,.02-48.91,0-73.36-.01-14.34-9.33-23.7-23.63-23.7C242.56,0,150.84,0,59.13,.02,44.99,.02,35.75,9.22,35.6,23.43c-.09,8.98-.02,17.96-.02,26.95v4.25c-3.74,0-6.97-.02-10.21,0C10.97,54.77-.06,65.61,0,79.55c.06,13.75,11.07,24.45,25.31,24.57,3.31,.03,6.62,0,10.04,0v24.99c-.46,.17-.69,.33-.92,.33-2.99,.03-5.99,.04-8.98,.06C11.18,129.59,.12,140.22,0,153.95c-.12,13.96,10.85,24.86,25.23,25.04,3.33,.04,6.65,.01,10.35,.01,0,7.67,.01,14.88-.01,22.1-.01,.97-.17,1.94-.28,3.24-3.63,0-7.1-.04-10.57,.01C10.87,204.54-.02,215.47,0,229.12c.02,13.63,10.96,24.53,24.82,24.7,3.45,.04,6.91,0,10.39,0v25.34c-3.47,0-6.59-.03-9.7,0C10.96,279.36,0,290.01,0,303.92s11.06,24.65,25.53,24.77c3.21,.02,6.42,0,10.05,0v4.41c0,9.11-.05,18.21,.02,27.32,.08,9.98,4.75,17.06,13.81,21.23,1.44,.67,2.99,1.12,4.49,1.67H124.29c4.72-2.83,6.23-5.62,5.21-9.59-.95-3.71-3.96-5.46-9.46-5.47ZM24.88,89.05c-5.64-.19-9.84-4.45-9.8-9.72,.05-5.27,4.25-9.5,9.92-9.6,7.97-.14,15.95-.15,23.92,.01,5.73,.11,9.73,4.29,9.7,9.71-.04,5.41-4.07,9.44-9.82,9.61-4.11,.12-8.22,.02-12.34,.02-3.86,0-7.72,.1-11.58-.03Zm.39,74.86c-5.9-.13-10.21-4.31-10.19-9.72,.03-5.41,4.34-9.56,10.28-9.64,7.72-.1,15.45-.11,23.17,.01,6,.08,10.11,4.17,10.08,9.72-.02,5.55-4.16,9.51-10.17,9.64-3.86,.07-7.73,.01-11.59,.01s-7.72,.07-11.58-.02Zm-.18,74.84c-5.86-.1-10.15-4.5-10.01-9.9,.15-5.29,4.35-9.31,10.07-9.46,3.99-.1,7.98-.02,11.96-.02s7.73-.09,11.59,.02c5.79,.16,9.84,4.12,9.92,9.52,.07,5.58-4.01,9.75-9.98,9.85-7.84,.13-15.7,.13-23.55-.01Zm23.54,74.86c-3.86,.11-7.72,.02-11.58,.02s-7.98,.09-11.96-.03c-5.85-.17-10.16-4.52-10.01-9.91,.15-5.3,4.37-9.36,10.08-9.43,7.85-.1,15.7-.1,23.55,0,5.76,.07,9.84,4.1,9.91,9.51,.07,5.57-4.03,9.67-9.99,9.84Z"/>
  <path class="cls-4" d="M163.1,373.78c.88,3.41-.16,6.37-3.25,8.38-.62,.4-1.24,.78-1.86,1.17h-4.5c-.67-.5-1.38-.97-2.02-1.51-2.72-2.29-3.93-5.1-2.6-8.58,1.3-3.4,3.85-5.1,7.5-4.9,3.49,.19,5.87,2.13,6.73,5.44Z"/>
  <path class="cls-1" d="M121.3,177.4c53.79,.08,107.57,.09,161.35,0,12.98-.02,22.64-9.86,22.82-22.8,.09-6.11,.07-12.23,.01-18.34-.14-14.6-5.08-27.34-15.14-37.94-1.64-1.73-1.8-3.18-1.23-5.26,1.66-6.14,1.64-12.33,.15-18.5-5.31-22.03-26.7-35.38-48.52-30.29-21.87,5.09-35.17,26.91-30.01,49.05,.29,1.27,.21,3.08-.5,4.05-2.56,3.5-5.46,6.75-8.31,10.18-2.62-3.23-5.33-6.33-7.73-9.65-.78-1.09-1.09-2.75-1.08-4.15,.04-6.06,1.37-12.33,.25-18.14-4.35-22.5-26.26-36.44-48.3-31.4-22.09,5.05-35.58,26.92-30.19,49.18,.53,2.15,.1,3.4-1.33,4.91-7.56,8-12.89,17.37-14.06,28.32-1.04,9.63-1.15,19.42-.84,29.12,.39,12.58,10.06,21.64,22.66,21.66ZM250.35,58.35c13.68,.13,24.91,11.46,24.9,25.13-.01,14.06-11.47,25.41-25.52,25.26-14.12-.16-25.3-11.61-25.06-25.69,.22-13.83,11.66-24.83,25.68-24.7Zm-39.62,68.69c.61-6.32,4.06-11.93,8.66-17.02,8.26,8.86,18.26,13.81,30.38,13.84,12.15,.02,22.25-4.72,30.68-13.87,6.35,7.06,9.41,15.27,9.85,24.42,.32,6.59,.21,13.21,.09,19.82-.08,4.91-3.09,8.08-7.95,8.1-23.81,.08-47.63,.03-71.44,.01-.34,0-.69-.19-1.87-.53,.47-11.5,.49-23.19,1.6-34.77Zm-56.7-68.69c13.97,.03,25.14,11.19,25.16,25.16,.03,14.11-11.26,25.29-25.46,25.23-13.9-.07-25.01-11.33-24.99-25.35,.02-13.87,11.32-25.06,25.29-25.04Zm-39.34,69.12c.7-6.53,4.15-12.18,8.68-17.51,8.35,9,18.49,13.96,30.76,13.91,12.14-.05,22.16-4.98,30.47-13.89,5.37,6.33,8.97,13.33,9.32,21.39,.44,10.17,.11,20.37,.11,31.01h-24.18c-15.59,0-31.18,.01-46.77-.01-6.83,0-9.56-2.66-9.43-9.55,.16-8.46,.14-16.96,1.04-25.35Z"/>
  <path class="cls-5" d="M288.21,201.85c-57.51-.05-115.01-.04-172.52,0-11.06,.01-17.21,6.15-17.23,17.13-.05,32.05-.04,64.1,0,96.16,.01,11.18,6.24,17.28,17.45,17.28h86.07c28.7,0,57.39,0,86.08,0,11.14-.01,17.42-6.23,17.43-17.32,.01-31.93,.01-63.86,0-95.79,0-11.19-6.09-17.45-17.28-17.46Zm-174.42,15.38h176.43v69.19c-1.76-1.35-3.11-2.34-4.42-3.38-8.31-6.58-16.57-13.23-24.93-19.74-12.37-9.63-27.71-9.52-39.98,.2-4.69,3.72-9.4,7.42-13.97,11.28-1.72,1.45-2.94,1.48-4.84,.22-11.14-7.34-22.32-14.63-33.62-21.72-9.36-5.88-19.67-8.13-30.44-5.33-4.55,1.18-8.82,3.88-12.88,6.43-3.84,2.42-7.23,5.55-11.35,8.79v-45.94Zm-.18,99.96v-13.16c0-6.1-.17-12.22,.11-18.31,.08-1.69,1.09-3.79,2.37-4.89,5.3-4.53,10.89-8.72,16.33-13.09,8.85-7.08,18.21-7.8,27.91-1.75,9.09,5.67,18.01,11.6,27.01,17.42,16.01,10.34,32.02,20.67,48.02,31.02,1.13,.73,2.22,1.52,4.02,2.76H113.61Zm176.81,.19c-7.57,0-14.54,.04-21.51-.04-.91-.01-1.92-.5-2.72-1.01-15.61-10.05-31.2-20.13-46.8-30.21-.3-.19-.58-.42-1.46-1.06,5.62-4.28,10.57-8.91,16.3-12.17,5.27-3.01,11.36-2.24,16.26,1.53,12.93,9.96,25.66,20.21,38.42,30.39,.7,.56,1.4,1.57,1.44,2.4,.17,3.21,.07,6.43,.07,10.17Z"/>
  <path class="cls-3" d="M357.89,132.67c-.01,4.21-3.36,7.49-7.63,7.45-4.27-.05-7.46-3.35-7.36-7.64,.09-4.04,3.37-7.31,7.38-7.36,4.11-.05,7.61,3.43,7.61,7.55Z"/>
</svg>