<?xml version="1.0" encoding="UTF-8"?>
<svg id="_Слой_1" data-name="Слой 1" xmlns="http://www.w3.org/2000/svg" xmlns:xlink="http://www.w3.org/1999/xlink" viewBox="0 0 342.56 343.12">
  <defs>
    <style>
      .cls-1 {
        fill: url(#_Безымянный_градиент_4-2);
      }

      .cls-2 {
        fill: url(#_Безымянный_градиент_4);
      }

      .cls-3 {
        fill: url(#_Безымянный_градиент_4-4);
      }

      .cls-4 {
        fill: url(#_Безымянный_градиент_4-3);
      }
    </style>
    <linearGradient id="_Безымянный_градиент_4" data-name="Безымянный градиент 4" x1="171.28" y1="0" x2="171.28" y2="343.12" gradientUnits="userSpaceOnUse">
      <stop offset="0" stop-color="#fff"/>
      <stop offset="1" stop-color="#02b0a4"/>
    </linearGradient>
    <linearGradient id="_Безымянный_градиент_4-2" data-name="Безымянный градиент 4" x1="171.29" y1="73.37" x2="171.29" y2="186.2" xlink:href="#_Безымянный_градиент_4"/>
    <linearGradient id="_Безымянный_градиент_4-3" data-name="Безымянный градиент 4" x1="171.59" y1="105.02" x2="171.59" y2="115.42" xlink:href="#_Безымянный_градиент_4"/>
    <linearGradient id="_Безымянный_градиент_4-4" data-name="Безымянный градиент 4" x1="158.43" y1="124.28" x2="158.43" y2="134.69" xlink:href="#_Безымянный_градиент_4"/>
  </defs>
  <path class="cls-2" d="M305.33,296.69c-5.5,1.11-10.44,1.98-15.3,3.2-1.07,.27-2.21,1.64-2.67,2.76-3.66,8.94-12.31,14.71-21.33,14.04-9.73-.72-17.55-7.16-19.83-16.51-.49-2-.6-4.14-.6-6.21-.03-34.92-.1-69.84,0-104.76,.05-17.42,17.19-28.02,31.89-19.91,4.7,2.6,8.08,6.42,9.79,11.52,.64,1.9,1.59,2.58,3.56,2.9,4.69,.75,9.32,1.87,14.05,2.86,.04-.05,.29-.23,.3-.41,.21-23.33,1.68-46.84-6.38-69.34-3.26-9.09-7.68-17.76-11.79-26.53-.48-1.02-2.46-2.13-3.55-1.96-7.9,1.24-13.83-1.74-18.75-7.72-13.47-16.38-30.09-28.44-49.88-36.14-47.12-18.33-101.5-4.91-134.72,33.26-2.09,2.4-4.15,4.89-6.56,6.94-3.85,3.28-8.57,4.43-13.48,3.46-2.8-.55-3.91,.57-5.11,2.69-11.2,19.73-17.17,40.92-17.71,63.58-.25,10.69-.04,21.38-.04,32.12,5.47-1.08,10.82-2.07,16.14-3.27,.65-.15,1.23-1.32,1.56-2.13,4.28-10.66,13.81-16.15,24.6-14.13,10.37,1.95,17.37,10.66,17.38,22.02,.05,35.04,.06,70.09,0,105.13-.02,11.12-7.05,19.94-17.14,21.9-10.73,2.09-20.56-3.36-24.63-14.01-.88-2.31-2.36-2.46-4.15-2.71-25.01-3.48-44.51-20.9-49.55-45.54-4.94-24.19,3.07-44.04,22.47-59.19,2.25-1.75,2.96-3.39,2.96-6.06,.03-13.52-.16-27.06,.47-40.56,1.06-22.61,7.84-43.64,19.23-63.16,1.22-2.09,1.49-3.57,.18-5.92-4.02-7.22-2.94-14.22,2.22-20.55,17.86-21.91,39.9-38.18,66.38-48.09,63.44-23.75,132.85-5.51,176.52,46.03,6.4,7.55,8.52,15.28,3.2,24.26-.45,.77-.17,2.37,.34,3.25,14.49,24.45,20.81,50.96,20.32,79.26-.15,8.85-.13,17.71,.08,26.56,.04,1.51,1.05,3.51,2.26,4.42,32.62,24.31,32.71,70.92,.03,95.01-1.81,1.33-2.55,2.66-2.44,4.85,.16,3.19,.05,6.39,.04,9.59-.07,17.01-10.93,27.95-27.9,27.97-29.14,.04-58.28,.05-87.42-.04-3.51-.01-5.95,.28-7.83,4.09-2.49,5.04-7.45,7.39-13.12,7.48-7.62,.13-15.25,.2-22.87-.02-9.32-.27-16.33-7.65-16.19-16.67,.14-9.02,7.28-16.06,16.66-16.21,7.25-.12,14.51-.04,21.76-.02,6.61,.02,11.38,3.1,14.85,8.68,.71,1.14,2.58,2.21,3.92,2.22,30.37,.12,60.74,.13,91.11,.07,9.98-.02,16.38-6.37,16.66-16.29,.07-2.68,.01-5.36,.01-8.08ZM180.26,10.49c-42.31-.05-73.91,10.56-99.96,31.6-8.35,6.75-15.6,14.91-23.06,22.7-3.61,3.78-3.17,8.44,.28,11.43,3.42,2.97,8.21,2.32,11.69-1.62,.89-1.01,1.73-2.07,2.61-3.1C109.11,27.97,171.73,13.84,224.15,37.07c18.76,8.31,34.64,20.35,47.9,35.97,1.54,1.82,3.44,3.63,5.56,4.6,3.22,1.46,6.86-.03,8.76-2.84,2.23-3.32,1.88-6.59-1.31-10.4C255.42,29.04,217.4,11.34,180.26,10.49ZM53.64,194.08c-20.13,.87-43.83,19.67-43.21,48.83,.51,23.9,21.43,46.36,43.21,46.09v-94.92Zm235.31,94.97c18.7-.48,43.52-18.23,43.16-48.06-.35-29.55-25.19-46.49-43.16-46.85v94.91Zm-202.44-47.03c0-17.94,.06-35.89-.03-53.83-.03-6.38-5.14-11.31-11.25-11.23-6,.08-10.98,4.9-10.99,11.11-.07,35.64-.08,71.28,.06,106.92,0,2.28,1.03,4.84,2.32,6.77,2.63,3.93,7.69,5.33,12.13,3.93,4.61-1.45,7.73-5.71,7.74-10.94,.05-17.57,.02-35.15,.01-52.72Zm191.87-.39c0-17.57,.02-35.15-.01-52.72-.01-5.89-3.24-10.23-8.38-11.53-7.35-1.86-13.89,3.45-13.91,11.46-.05,26.05-.02,52.11-.02,78.16,0,9.34-.06,18.68,.03,28.02,.05,5.43,3.7,9.83,8.72,10.88,7.19,1.5,13.51-3.59,13.55-11.17,.09-17.7,.03-35.39,.03-53.09Zm-110.49,90.97s0-.01,0-.02c3.68,0,7.36,.12,11.04-.03,3.72-.15,6.17-2.59,6.27-5.91,.1-3.44-2.45-6.16-6.31-6.23-7.23-.14-14.48-.13-21.71-.01-3.92,.07-6.46,2.65-6.45,6.1,.01,3.45,2.55,5.93,6.49,6.08,3.55,.13,7.11,.03,10.67,.03Z"/>
  <path class="cls-1" d="M143.68,162.71c-5.71,0-11.1,.03-16.5,0-10.02-.06-16.49-6.33-16.53-16.24-.08-18.93-.07-37.86,0-56.78,.04-9.95,6.47-16.27,16.49-16.28,29.5-.04,59-.04,88.5,0,9.77,.01,16.26,6.38,16.3,16.1,.09,19.05,.09,38.1,0,57.15-.05,9.68-6.58,15.98-16.35,16.05-6.27,.04-12.54-.17-18.8,.11-1.97,.09-4.3,.95-5.76,2.24-5.9,5.2-11.5,10.73-17.26,16.09-9.72,9.04-22.86,5.53-26.74-7.13-1.11-3.63-2.15-7.29-3.33-11.3Zm77.91-44.48c0-9.34,.03-18.68-.01-28.02-.02-4.69-1.79-6.46-6.46-6.46-29.25-.02-58.5-.02-87.75,0-4.62,0-6.37,1.81-6.38,6.54-.03,18.56-.03,37.12,0,55.67,0,4.62,1.84,6.36,6.55,6.39,6.14,.04,12.29,.12,18.43-.03,3.97-.1,6.14,1.56,7.09,5.41,1.05,4.28,2.43,8.49,3.71,12.72,1.83,6.04,5.69,7.05,10.33,2.71,6.19-5.79,12.45-11.52,18.51-17.45,2.45-2.4,5.02-3.53,8.5-3.42,7,.23,14.01,.09,21.01,.06,4.66-.02,6.44-1.78,6.46-6.46,.04-9.22,.01-18.43,.01-27.65Z"/>
  <path class="cls-4" d="M171.78,115.41c-10.68,0-21.36,.03-32.03-.02-4.17-.02-6.71-2.53-6.08-6,.61-3.41,3.02-4.37,6.22-4.36,19.15,.04,38.29,.02,57.44,.02,2.09,0,4.17-.03,6.26,.01,3.67,.08,5.96,2.01,6.03,5.02,.07,3.12-2.35,5.3-6.17,5.32-10.56,.05-21.11,.02-31.67,.02Z"/>
  <path class="cls-3" d="M158.51,124.3c6.26,0,12.51-.04,18.77,.01,3.93,.03,6.11,2.04,6.02,5.34-.09,3.14-2.19,4.99-5.99,5-12.63,.04-25.27,.05-37.9,0-3.72-.02-5.84-2.01-5.84-5.17,0-3.18,2.1-5.13,5.82-5.17,6.38-.06,12.76-.02,19.14-.02Z"/>
</svg>