<?xml version="1.0" encoding="UTF-8"?>
<svg id="_Слой_1" data-name="Слой 1" xmlns="http://www.w3.org/2000/svg" xmlns:xlink="http://www.w3.org/1999/xlink" viewBox="0 0 338.81 383.44">
  <defs>
    <style>
      .cls-1 {
        fill: url(#_Безымянный_градиент_5-12);
      }

      .cls-2 {
        fill: url(#_Безымянный_градиент_5-9);
      }

      .cls-3 {
        fill: url(#_Безымянный_градиент_5-5);
      }

      .cls-4 {
        fill: url(#_Безымянный_градиент_5-6);
      }

      .cls-5 {
        fill: url(#_Безымянный_градиент_5-4);
      }

      .cls-6 {
        fill: url(#_Безымянный_градиент_5-11);
      }

      .cls-7 {
        fill: url(#_Безымянный_градиент_5-8);
      }

      .cls-8 {
        fill: url(#_Безымянный_градиент_5-7);
      }

      .cls-9 {
        fill: url(#_Безымянный_градиент_5-3);
      }

      .cls-10 {
        fill: url(#_Безымянный_градиент_5-14);
      }

      .cls-11 {
        fill: url(#_Безымянный_градиент_5);
      }

      .cls-12 {
        fill: url(#_Безымянный_градиент_5-2);
      }

      .cls-13 {
        fill: url(#_Безымянный_градиент_5-13);
      }

      .cls-14 {
        fill: url(#_Безымянный_градиент_5-10);
      }
    </style>
    <linearGradient id="_Безымянный_градиент_5" data-name="Безымянный градиент 5" x1="169.4" y1="0" x2="169.4" y2="383.44" gradientUnits="userSpaceOnUse">
      <stop offset="0" stop-color="#fff"/>
      <stop offset="1" stop-color="#02b0a4"/>
    </linearGradient>
    <linearGradient id="_Безымянный_градиент_5-2" data-name="Безымянный градиент 5" x1="135.89" y1="40.06" x2="135.89" y2="145.61" xlink:href="#_Безымянный_градиент_5"/>
    <linearGradient id="_Безымянный_градиент_5-3" data-name="Безымянный градиент 5" x1="90.26" y1="225.31" x2="90.26" y2="236.58" xlink:href="#_Безымянный_градиент_5"/>
    <linearGradient id="_Безымянный_градиент_5-4" data-name="Безымянный градиент 5" x1="90.09" y1="174.4" x2="90.09" y2="185.66" xlink:href="#_Безымянный_градиент_5"/>
    <linearGradient id="_Безымянный_градиент_5-5" data-name="Безымянный градиент 5" x1="90.33" y1="276.28" x2="90.33" y2="287.52" xlink:href="#_Безымянный_градиент_5"/>
    <linearGradient id="_Безымянный_градиент_5-6" data-name="Безымянный градиент 5" x1="90.1" y1="327.18" x2="90.1" y2="338.45" xlink:href="#_Безымянный_градиент_5"/>
    <linearGradient id="_Безымянный_градиент_5-7" data-name="Безымянный градиент 5" x1="67.64" y1="199.87" x2="67.64" y2="211.13" xlink:href="#_Безымянный_градиент_5"/>
    <linearGradient id="_Безымянный_градиент_5-8" data-name="Безымянный градиент 5" x1="67.64" y1="301.73" x2="67.64" y2="312.99" xlink:href="#_Безымянный_градиент_5"/>
    <linearGradient id="_Безымянный_градиент_5-9" data-name="Безымянный градиент 5" x1="67.64" y1="250.78" x2="67.64" y2="262.04" xlink:href="#_Безымянный_градиент_5"/>
    <linearGradient id="_Безымянный_градиент_5-10" data-name="Безымянный градиент 5" x1="198.26" y1="276.28" x2="198.26" y2="287.54" xlink:href="#_Безымянный_градиент_5"/>
    <linearGradient id="_Безымянный_градиент_5-11" data-name="Безымянный градиент 5" x1="198.26" y1="327.18" x2="198.26" y2="338.45" xlink:href="#_Безымянный_градиент_5"/>
    <linearGradient id="_Безымянный_градиент_5-12" data-name="Безымянный градиент 5" x1="198.26" y1="174.41" x2="198.26" y2="185.68" xlink:href="#_Безымянный_градиент_5"/>
    <linearGradient id="_Безымянный_градиент_5-13" data-name="Безымянный градиент 5" x1="198.26" y1="225.32" x2="198.26" y2="236.58" xlink:href="#_Безымянный_градиент_5"/>
    <linearGradient id="_Безымянный_градиент_5-14" data-name="Безымянный градиент 5" x1="135.82" y1="59.89" x2="135.82" y2="125.94" xlink:href="#_Безымянный_градиент_5"/>
  </defs>
  <path class="cls-11" d="M18.12,383.44c-3.88-2.14-8.21-3.73-11.52-6.54-5.05-4.28-6.33-10.45-6.33-16.95-.01-61.51-.08-123.02-.13-184.54C.09,122.26,.04,69.11,0,15.96,0,7.59,4.01,2.05,11.26,1.27c2.84-.31,5.99,.38,8.73,1.37,3.84,1.39,7.48,3.38,11.11,5.31,11.1,5.88,22.26,6.09,33.21-.07C72.27,3.39,80.45,.15,89.73,.18c8.43,.03,16.32,1.94,23.49,6.41,8.23,5.13,17.1,6.91,26.52,4.7,3.57-.84,7.1-2.38,10.3-4.22,16.24-9.35,32.41-9.47,48.63-.09,12.09,7,24.09,6.77,36.22-.06,3.88-2.18,8.02-4.1,12.28-5.36,9.57-2.84,17.32,3.15,17.33,13.16,.05,45.17,.06,90.33,.08,135.5,0,1.6,0,3.19,0,5.24,10.44-1.08,18.28,3.7,25.93,9.45,5.85,4.4,13.87,4.1,20.03-.05,2.48-1.67,4.79-3.61,7.32-5.19,9.47-5.9,20.67,.06,20.84,11.21,.19,12.97,.06,25.95,.06,38.93,0,42.3,0,84.59,0,126.89,0,25.39-11.64,40.2-36.31,46.25-.21,.05-.36,.31-.54,.48H87.76c-2.5-1.87-4.64-3.96-3.34-7.47,1.28-3.44,4.16-3.79,7.35-3.78,56.65,.03,113.3,.02,169.96,.02h4.99c-.67-.95-1.04-1.64-1.55-2.2-7.72-8.34-11.63-18.22-11.66-29.54-.08-33.56-.08-67.12-.1-100.68,0-.62-.02-1.25,.05-1.87,.41-3.39,2.91-5.71,5.93-5.52,2.95,.19,5.14,2.45,5.2,5.78,.11,6.61,.06,13.22,.06,19.84,.02,27.07,0,54.15,.08,81.22,.05,15.7,8.84,27.71,22.97,31.75,19.35,5.53,39.24-8.67,39.69-28.78,.4-17.83,.14-35.68,.14-53.52,0-37.93,0-75.86,0-113.79,0-1,.04-2-.01-2.99-.18-3.46-1.56-4.15-4.52-2.19-1.87,1.24-3.62,2.66-5.45,3.95-10.44,7.39-23.83,7.38-34.3-.01-4.15-2.93-7.91-6.63-13.41-6.91-1.58-.08-3.17-.01-5.24-.01,0,1.7,0,3.02,0,4.35,0,13.47,.03,26.95,.02,40.42,0,5.09-1.92,7.63-5.65,7.57-3.63-.06-5.57-2.71-5.58-7.76-.04-64.63-.07-129.26-.1-193.88,0-5.9-.65-6.42-6.15-4.12-3.09,1.29-6,3.02-8.99,4.56-14.2,7.29-28.58,7.72-42.61,.03-8.95-4.9-17.96-8.2-28.17-5.79-3.46,.82-6.96,2.12-10.01,3.92-16.53,9.74-32.99,9.97-49.62,.35-12.11-7.01-24.2-6.67-36.17,.4-13.37,7.91-27.29,8.89-41.61,3.08-4.6-1.87-8.83-4.63-13.41-6.55-4.7-1.98-5.31-1.39-5.31,3.74,.1,114.16,.2,228.32,.3,342.48,0,9.03,3.68,12.67,12.74,12.67,12.98,0,25.96,.04,38.93-.03,3.24-.02,6.14,.47,7.24,3.93,1.09,3.44-.78,5.7-3.64,7.33H18.12Z"/>
  <path class="cls-12" d="M135.87,145.61c-29.24,.03-52.79-23.52-52.77-52.77,.02-29.18,23.74-52.87,52.86-52.78,28.92,.09,52.6,23.76,52.71,52.68,.11,29.06-23.64,52.84-52.8,52.87Zm-.19-11.25c22.98,.09,41.79-18.63,41.74-41.52-.05-22.75-18.6-41.32-41.45-41.53-22.68-.2-41.42,18.37-41.62,41.24-.2,23.05,18.27,41.72,41.33,41.81Z"/>
  <path class="cls-9" d="M90,225.34c13.6,0,27.2-.01,40.79,0,4.83,0,7.24,1.92,7.21,5.6-.03,3.65-2.5,5.6-7.3,5.61-27.07,.02-54.14,.07-81.21-.12-2.17-.02-4.81-1.31-6.31-2.89-.94-.99-.9-4.28,.05-5.36,1.34-1.52,3.91-2.69,5.98-2.73,13.59-.23,27.19-.12,40.79-.12Z"/>
  <path class="cls-5" d="M90.39,174.43c13.47,0,26.94-.01,40.42,0,4.83,0,7.24,1.92,7.2,5.6-.04,3.64-2.52,5.61-7.31,5.61-27.07,.02-54.14,.03-81.21,0-5.65,0-8.83-4.04-6.6-8.23,1.36-2.56,3.68-3.02,6.34-3.01,13.72,.05,27.44,.02,41.17,.02Z"/>
  <path class="cls-3" d="M90.07,276.29c13.6,0,27.2-.01,40.79,0,4.75,0,7.22,1.99,7.15,5.65-.07,3.52-2.51,5.55-6.99,5.55-27.32,.03-54.64,.01-81.96,.02-2.98,0-5.83-.83-6.34-3.99-.3-1.87,.56-4.36,1.76-5.9,.83-1.05,3.14-1.27,4.8-1.29,13.6-.09,27.2-.05,40.79-.05Z"/>
  <path class="cls-4" d="M90.28,327.2c13.72,0,27.45-.02,41.17,.02,4.21,.01,6.53,2.04,6.55,5.5,.02,3.32-2.26,5.59-6.08,5.68-5.24,.12-10.48,.04-15.72,.04-21.71,0-43.42,0-65.12,0-1.12,0-2.25,.07-3.37-.05-3.37-.36-5.7-2.91-5.51-5.93,.19-2.94,2.47-5.16,5.78-5.2,8.23-.1,16.47-.04,24.7-.05,5.86,0,11.73,0,17.59,0Z"/>
  <path class="cls-8" d="M67.9,199.88c6.24,0,12.47-.04,18.71,.02,4.18,.04,6.49,2.1,6.47,5.57-.02,3.42-2.38,5.59-6.53,5.61-12.6,.06-25.19,.06-37.79,0-4.01-.02-6.57-2.38-6.56-5.67,.01-3.29,2.56-5.48,6.61-5.52,6.36-.05,12.72-.01,19.08-.01Z"/>
  <path class="cls-7" d="M67.52,301.74c6.36,0,12.72-.04,19.08,.01,4.16,.03,6.49,2.1,6.48,5.57-.02,3.42-2.41,5.6-6.53,5.62-12.6,.06-25.19,.06-37.79,0-4.01-.02-6.57-2.37-6.56-5.67,.01-3.3,2.57-5.49,6.61-5.52,6.24-.05,12.47-.01,18.71-.01Z"/>
  <path class="cls-2" d="M68.11,250.79c6.11,0,12.22-.04,18.33,.01,4.25,.04,6.56,1.99,6.63,5.43,.07,3.57-2.37,5.75-6.74,5.77-12.47,.05-24.94,.05-37.41,0-4.07-.02-6.63-2.21-6.72-5.5-.1-3.42,2.52-5.66,6.83-5.7,6.36-.05,12.72-.01,19.08-.01Z"/>
  <path class="cls-14" d="M198.43,276.29c5.86,0,11.72-.03,17.58,.01,4.15,.03,6.54,2.09,6.56,5.49,.02,3.42-2.37,5.67-6.46,5.7-11.84,.07-23.68,.07-35.53,0-4.04-.02-6.59-2.3-6.63-5.6-.04-3.4,2.58-5.57,6.9-5.59,5.86-.03,11.72,0,17.58,0Z"/>
  <path class="cls-6" d="M198.38,327.2c5.86,0,11.72-.04,17.58,.01,4.18,.03,6.56,2.05,6.62,5.45,.05,3.43-2.34,5.71-6.41,5.74-11.97,.07-23.94,.07-35.9,0-3.78-.02-6.23-2.34-6.31-5.52-.08-3.31,2.48-5.61,6.47-5.65,5.98-.06,11.97-.02,17.95-.02Z"/>
  <path class="cls-1" d="M198.42,174.43c5.86,0,11.72-.04,17.57,.01,4.17,.04,6.55,2.07,6.57,5.48,.03,3.42-2.35,5.68-6.45,5.7-11.84,.08-23.68,.07-35.52,0-4.05-.02-6.59-2.29-6.64-5.59-.05-3.4,2.58-5.58,6.89-5.6,5.86-.04,11.72,0,17.57,0Z"/>
  <path class="cls-13" d="M198.37,225.34c5.73,0,11.47-.03,17.2,0,4.51,.03,6.94,1.96,6.99,5.46,.06,3.54-2.41,5.73-6.78,5.75-11.72,.05-23.43,.05-35.15,0-4.08-.02-6.6-2.22-6.68-5.53-.08-3.41,2.54-5.63,6.85-5.66,5.86-.05,11.72-.01,17.58-.01Z"/>
  <path class="cls-10" d="M129.73,118.1c-2.71-1.36-5.16-2.35-7.34-3.75-2.91-1.86-3.59-5.14-1.92-7.79,1.59-2.52,4.44-3.02,7.59-1.84,2.5,.94,5.17,1.66,7.81,1.88,2.73,.23,4.35-1.68,4.89-4.26,.55-2.65-1.25-3.76-3.34-4.66-3.2-1.37-6.51-2.58-9.52-4.31-9.18-5.3-9.48-17.76-.53-23.5,1.97-1.27,3.06-2.36,3.06-4.88,0-3.2,2.07-5,5.28-5.11,3.27-.11,5.44,1.76,5.57,4.83,.11,2.74,1.37,3.8,3.53,4.87,3.59,1.78,4.81,5.01,3.35,7.97-1.46,2.97-4.52,3.65-8.38,2.03-1.23-.52-2.73-1.12-3.89-.84-1.34,.32-2.44,1.59-3.65,2.45,.74,1,1.27,2.38,2.27,2.94,2.27,1.27,4.73,2.2,7.17,3.15,5.97,2.33,9.86,6.48,10.34,12.96,.5,6.8-2.46,12.1-8.38,15.56-1.6,.93-2.69,1.66-2.68,3.86,.02,4-2.1,6.19-5.38,6.24-3.31,.05-5.35-2.08-5.75-6.03-.06-.61-.07-1.23-.1-1.8Z"/>
</svg>