<svg id="Слой_1" data-name="Слой 1" xmlns="http://www.w3.org/2000/svg" viewBox="0 0 378.13 208.5"><defs><style>.cls-1{fill:#fff;}</style></defs><path class="cls-1" d="M976.57,555.26v5a16.34,16.34,0,0,0,1.84.38c6.92.65,9.72,3.62,9.78,10.65s0,14.25,0,21.38c0,6.62.06,13.25,0,19.87-.09,7-3.45,10.44-10.37,10.49q-17.82.15-35.63,0c-6.76-.06-10.21-3.49-10.25-10.2q-.15-21,0-42c.05-6.95,2.44-9.06,11.51-10.57v-4.93c-3.45-1.17-5.55.09-7.59,2.88-8.1,11.1-16.5,22-24.63,33.07a10,10,0,0,0-1.82,5.42c-.18,12.25-.11,24.5-.18,36.75,0,7.52-3.28,10.77-10.7,10.8-6.26,0-12.51,0-18.76,0-6.48-.05-10.11-3.42-10.16-9.88-.12-16-.15-32,.09-48a14.67,14.67,0,0,1,2.67-7.54c6-8.9,12.44-17.53,18.5-26.4a10.76,10.76,0,0,0,1.31-5.41c.15-3.62-.16-7.25-.06-10.87,0-2.13-.54-3.37-2.67-4.24-15.14-6.18-30-13.06-45.4-18.53C835,510.12,825.09,509,815.57,507c-2.56-.55-5.14-1-7.7-1.58-4.64-1-7.45-4.23-7.55-9q-.2-9.75,0-19.5c.13-5.92,3.23-8.57,10.85-9.53a31,31,0,0,1,1.3-5.25,28.87,28.87,0,0,1,3.08-4.52c-11.92-1.33-23.54-2.64-35.17-3.9-6-.66-9.88-4.68-9.34-9.95s5.15-8.63,11.13-8c14.65,1.61,29.27,3.75,44,4.71,8,.53,16.17-.77,24.25-1.49,11-1,21.87-2.23,32.82-3.26,5.78-.54,10.16,2.88,10.71,8.07s-3.25,9.28-9,9.87c-12.68,1.28-25.37,2.5-38,3.77a24.61,24.61,0,0,0-2.43.43l3.32,8.34,44,18.39c.19-1.32.31-2.28.45-3.24.78-5.29,4-8.22,9.38-8.27,8.38-.08,16.76,0,25.13,0h87c11.32,0,12.17.65,14.92,11.47L1072,466.43l.41.92a31.46,31.46,0,0,1,1.19-5.05,30,30,0,0,1,2.77-4.4c-5.69-.61-11.11-1.22-16.53-1.76-8.08-.82-16.17-1.63-24.25-2.38-5.85-.55-9.72-4.44-9.39-9.55.34-5.34,4.85-9,10.78-8.4,15.67,1.5,31.31,3.51,47,4.49,8.14.51,16.42-.5,24.6-1.22,10-.88,19.86-2.23,29.8-3.26,5.71-.59,10.2,2.89,10.7,8.06s-3.17,9.21-9,9.87c-11.66,1.34-23.33,2.61-34.85,3.9,1.36,3.11,2.74,6.28,4.31,9.89.06,0,.79.12,1.52.19,5.67.61,8.71,3.88,8.79,9.68q.12,9.18,0,18.37c-.07,5.43-2.65,8.58-8,9.73-8.18,1.76-16.42,3.22-24.55,5.17A137.29,137.29,0,0,0,1069.4,516c-12.9,5-25.61,10.57-38.44,15.78-2.19.88-3,2-3,4.4.08,4.11-.37,8.22-.34,12.33a7,7,0,0,0,1.4,3.65c6.23,8.91,12.69,17.66,18.73,26.7a16.26,16.26,0,0,1,2.65,8.29c.25,15.37.15,30.75.1,46.13,0,7.68-3.34,10.91-11,10.93-6.25,0-12.5.06-18.76,0s-9.79-3.49-9.85-9.74c-.12-12.5,0-25-.21-37.5a11.4,11.4,0,0,0-2.06-6.09c-8-10.89-16.24-21.56-24.19-32.47C982.43,555.68,980.4,554.16,976.57,555.26Z" transform="translate(-770.98 -435.76)"/></svg>