<?xml version="1.0" encoding="UTF-8"?>
<svg id="_Слой_1" data-name="Слой 1" xmlns="http://www.w3.org/2000/svg" viewBox="0 0 278.79 383.34">
  <defs>
    <style>
      .cls-1 {
        fill: #02b0a4;
      }
    </style>
  </defs>
  <path class="cls-1" d="M228.52,383.34c-2.57-2.74-5.53-5.22-7.61-8.29-3.28-4.83-5.96-10.06-9.12-15.5-4.31,2.47-8.47,4.87-12.64,7.24-8.64,4.91-15.79,.76-15.8-9.24-.04-21.21-.04-42.41,0-63.62,.02-9.97,7.23-14.16,15.83-9.21,18.36,10.57,36.72,21.15,55.05,31.78,8.75,5.07,8.71,13.45-.04,18.56-4.07,2.37-8.15,4.72-12.38,7.18,3.46,6.02,6.77,11.71,10.02,17.44,3.82,6.75,2.52,11.86-4.09,15.77-4.6,2.72-9.31,5.28-13.96,7.91h-5.24Zm19.26-57.61c-17.9-10.33-35.18-20.31-52.96-30.57v61.17c3.65-2.11,6.85-3.97,10.06-5.81,7.84-4.5,12.84-3.17,17.36,4.62,3.17,5.46,6.33,10.92,9.59,16.53,3.66-2.12,6.96-4.03,10.46-6.06-3.48-6.04-6.8-11.72-10.04-17.45-3.8-6.71-2.41-11.91,4.16-15.8,3.54-2.09,7.1-4.13,11.38-6.62Z"/>
  <path class="cls-1" d="M267.56,68.25H11.26c0,5.2,.32,10.3-.16,15.32-.19,1.99-1.77,4.5-3.46,5.49-1.32,.77-4.12,.06-5.66-.93-1.14-.74-1.84-2.97-1.85-4.55C.01,62.63-.09,41.67,.13,20.71,.26,9.05,10.09,.15,22.4,.12c20.59-.04,41.18,.08,61.76,.07,51.41-.04,102.81-.11,154.22-.17,6.11,0,12.23-.07,18.34,.09,13.06,.34,22.04,9.4,22.04,22.41,.03,103.42,.02,206.83,.02,310.25,0,9.04-3.91,15.8-11.83,20.16-2.75,1.51-5.55,1.63-7.8-.99-2.41-2.8-1.74-6.66,1.78-8.52,4.75-2.5,6.66-6.21,6.66-11.51-.06-86.7-.04-173.4-.04-260.1,0-1.09,0-2.19,0-3.55ZM11.35,56.65H267.56c0-10.8,0-21.37,0-31.95,0-9.74-3.59-13.38-13.22-13.38-70.98-.01-141.96-.03-212.94-.04-6.49,0-12.98-.06-19.46,.06-5.66,.11-10.38,3.94-10.5,9.17-.26,11.95-.08,23.91-.08,36.13Z"/>
  <path class="cls-1" d="M.04,221.2c0-37.18,0-74.37,0-111.55,0-1.25-.08-2.51,.09-3.74,.4-2.82,2.15-4.51,4.94-4.78,2.81-.28,4.93,1.04,5.72,3.77,.47,1.63,.46,3.44,.46,5.17,.02,73.62-.01,147.23,.12,220.85,0,3.06,.88,6.45,2.37,9.11,1.92,3.43,5.77,3.97,9.55,3.96,12.36-.03,24.71,0,37.07,0,34.2,0,68.39,0,102.59,.01,1.49,0,3.02-.02,4.46,.3,2.79,.62,4.25,2.54,4.22,5.39-.03,2.84-1.56,4.68-4.35,5.29-1.08,.24-2.23,.24-3.35,.24-46.93,.01-93.85,.04-140.78-.01-11.73-.01-20.16-6.36-22.55-16.88-.52-2.28-.53-4.7-.53-7.06-.03-36.68-.02-73.37-.02-110.05Z"/>
  <path class="cls-1" d="M139.37,240.47c-24.83,0-49.65,0-74.48,0-10.34,0-14.88-4.5-14.92-14.72-.01-3.99-.09-7.99,.03-11.97,.23-7.66,5.05-12.48,12.71-12.85,.75-.04,1.5-.02,2.25-.02,49.65,0,99.3,.02,148.95-.03,5.14,0,9.67,1.04,12.75,5.55,3.19,4.65,3.2,24.11-.04,28.66-2.74,3.87-6.57,5.43-11.29,5.41-18.46-.07-36.93-.03-55.39-.03-6.86,0-13.72,0-20.58,0Zm-.15-11.23c18.33,0,36.65,0,54.98,0,6.73,0,13.47-.09,20.2,.04,2.44,.05,3.37-.79,3.25-3.22-.14-2.86-.03-5.73-.03-8.6q0-5.32-5.27-5.33c-48.62,0-97.25,0-145.87,0-.87,0-1.75,.04-2.62,0-1.91-.09-2.69,.82-2.66,2.7,.05,3.36,.22,6.75-.05,10.09-.28,3.45,.93,4.41,4.39,4.39,24.56-.15,49.12-.08,73.68-.08Z"/>
  <path class="cls-1" d="M139.44,176.95c-24.82,0-49.65,0-74.47,0-10.51,0-14.96-4.49-14.99-15.04,0-3.12,0-6.24,0-9.35,.02-10.73,4.45-15.1,15.3-15.11,17.84,0,35.68,0,53.51,0,31.56,0,63.12,0,94.68,0,11.01,0,15.35,4.37,15.37,15.42,0,2.87,0,5.74,0,8.61-.01,11.08-4.35,15.47-15.31,15.47-24.7,0-49.4,0-74.1,0Zm-.34-11.23c24.83,0,49.66-.04,74.49,.06,3.02,.01,4.35-.75,4.08-3.95-.23-2.72-.04-5.49-.05-8.23q0-4.91-4.89-4.92c-48.91,0-97.83,0-146.74,0-.5,0-1,.05-1.5,0-2.37-.25-3.43,.68-3.31,3.17,.15,3.11,.26,6.26-.03,9.35-.33,3.62,.96,4.63,4.58,4.61,24.46-.15,48.91-.08,73.37-.08Z"/>
  <path class="cls-1" d="M139.11,307.74c-4.36,0-8.73,.07-13.09-.01-10.58-.2-18.77-8.58-18.87-19.22-.1-11.04,7.76-19.61,18.54-19.84,9.22-.2,18.46-.22,27.68,.02,10.58,.27,18.37,8.82,18.31,19.68-.06,10.69-8.17,19.13-18.72,19.36-4.61,.1-9.23,.02-13.84,.02Zm.31-11.22c4.24,0,8.47,.07,12.71-.02,5-.1,8.24-3.35,8.31-8.16,.07-5.06-3.08-8.41-8.32-8.47-8.47-.1-16.94-.1-25.41,0-5.24,.06-8.39,3.41-8.31,8.48,.08,4.8,3.32,8.05,8.32,8.15,4.23,.09,8.47,.02,12.71,.02Z"/>
  <path class="cls-1" d="M139.4,101.05c-16.96,0-33.91,0-50.87,0-1.24,0-2.54,.08-3.71-.26-2.86-.82-4.42-2.87-4.16-5.85,.26-2.96,2.08-4.71,5.08-5.06,.99-.11,1.99-.05,2.99-.05,33.79,0,67.57,0,101.36,0,1,0,2.01-.07,2.99,.05,3.18,.4,5.01,2.32,5.09,5.45,.08,2.97-1.66,4.91-4.56,5.56-1.19,.27-2.48,.15-3.73,.16-16.83,0-33.66,0-50.49,0Z"/>
  <path class="cls-1" d="M41.29,51.24c-9.49,.04-17.18-7.59-17.21-17.06-.03-9.49,7.57-17.11,17.09-17.13,9.49-.02,17.23,7.6,17.27,17.01,.04,9.37-7.72,17.14-17.15,17.18Zm5.9-17.22c-.07-3.25-2.82-5.81-6.15-5.72-3.32,.09-5.86,2.82-5.7,6.11,.16,3.13,2.75,5.57,5.9,5.56,3.27-.01,6.01-2.75,5.94-5.96Z"/>
  <path class="cls-1" d="M86.23,17.05c9.48,.03,17.18,7.74,17.14,17.14-.04,9.39-7.84,17.09-17.27,17.05-9.49-.04-17.11-7.7-17.09-17.18,.03-9.47,7.69-17.04,17.22-17.01Zm-.21,11.25c-3.33,.07-5.89,2.76-5.75,6.06,.13,3.13,2.7,5.59,5.85,5.61,3.27,.02,6.03-2.7,6-5.9-.03-3.24-2.78-5.84-6.1-5.77Z"/>
  <path class="cls-1" d="M131.15,17.05c9.49,.03,17.19,7.71,17.16,17.12-.03,9.39-7.83,17.1-17.26,17.07-9.49-.03-17.12-7.69-17.1-17.17,.02-9.48,7.67-17.05,17.2-17.02Zm5.91,17.05c-.02-3.25-2.75-5.85-6.08-5.8-3.33,.06-5.9,2.74-5.78,6.04,.11,3.13,2.68,5.61,5.83,5.64,3.27,.03,6.04-2.67,6.03-5.88Z"/>
</svg>