<?xml version="1.0" encoding="UTF-8"?>
<svg id="_Слой_1" data-name="Слой 1" xmlns="http://www.w3.org/2000/svg" viewBox="0 0 346.97 288.3">
  <defs>
    <style>
      .cls-1 {
        fill: #02b0a4;
      }
    </style>
  </defs>
  <path class="cls-1" d="M71.33,247.01c4.56-13.6,8.9-26.54,13.25-39.49,3.69-10.98,7.43-21.94,11.06-32.95,1.02-3.1,2.13-5.97,5.95-6.28,4.03-.33,5.55,2.51,7.06,5.54,6.25,12.6,12.59,25.17,19.29,38.54,3.64-3.78,6.71-7.58,10.38-10.65,9.27-7.76,15.23-17.36,18.71-28.94,3.07-10.23,7.17-20.16,10.87-30.21,.38-1.02,.96-2.07,1.72-2.84,8.89-8.93,17.81-17.83,26.79-26.67,2.33-2.29,5.14-2.57,7.84-.7,2.46,1.7,3.06,4.28,1.99,6.97-.53,1.32-1.67,2.46-2.71,3.51-6.94,6.99-13.93,13.93-20.63,20.61,7.16,7.17,14.17,14.2,20.89,20.93,34.45-34.46,69.32-69.34,103.91-103.94-6.48-6.45-13.43-13.37-20.66-20.58-.43,.41-1.41,1.3-2.35,2.24-15.89,15.87-31.74,31.78-47.71,47.57-1.49,1.47-3.69,2.92-5.63,3.01-1.71,.08-4.2-1.34-5.07-2.84-.87-1.5-.46-3.99,0-5.9,.28-1.17,1.67-2.11,2.63-3.08,16.31-16.33,32.71-32.58,48.94-49,9.28-9.38,18.26-19.06,27.45-28.53,4.31-4.44,7.07-4.43,11.37-.15,9.1,9.07,18.19,18.16,27.26,27.27,4.08,4.09,4.06,6.98-.09,11.15-5.87,5.91-11.79,11.77-18.19,18.14,2.83,2.63,5.47,4.9,7.9,7.38,3.28,3.34,3.28,6.42-.06,9.78-15.5,15.56-31.03,31.08-46.59,46.58-3.08,3.06-6.75,3.26-9.26,.7-2.49-2.54-2.22-6.16,.87-9.25,13.21-13.26,26.45-26.48,39.7-39.7,.97-.97,2.1-1.77,3.69-3.1-1.66-1.35-2.86-2.34-4.81-3.92-.73,1.03-1.37,2.3-2.33,3.26-34.03,34.08-68.16,68.06-102.07,102.27-3.91,3.94-8.05,6.7-13.21,8.53-12.2,4.34-24.3,8.97-36.38,13.65-2.13,.82-4.22,2.18-5.85,3.77-8.57,8.37-16.98,16.9-25.47,25.35-4.89,4.87-8.83,4.2-11.95-2-5.38-10.67-10.72-21.36-16.5-32.87-.71,1.92-1.18,3.1-1.58,4.31-7.73,23.15-15.47,46.3-23.16,69.47-1.03,3.09-2.18,5.93-6.02,6.22-3.84,.29-5.57-2.29-6.87-5.27-5.98-13.69-11.92-27.4-17.87-41.1-.54-1.24-1.05-2.49-1.8-4.26-2.02,4.03-3.73,7.62-5.59,11.12-9.3,17.49-18.63,34.96-27.98,52.43-.64,1.2-1.36,2.43-2.32,3.37-2.25,2.19-4.94,2.44-7.5,.67-2.38-1.65-3.29-4.06-2.17-6.89,.5-1.26,1.27-2.42,1.91-3.63,11.93-22.58,23.83-45.17,35.82-67.72,1.34-2.52,1.41-4.7,.46-7.4-8.73-24.71-15.83-49.87-19.58-75.87-2.82-19.57-4.49-39.19,.34-58.72,.72-2.89,1.67-5.75,2.82-8.5,7.6-18.2,24.4-26.3,43.34-20.82,14.54,4.21,21.02,15.17,23.42,29.11,2.8,16.3,.24,32.31-3.36,48.19-6.82,30.03-18.04,58.52-30.7,86.47-1.34,2.97-1.63,5.43-.3,8.4,5.03,11.25,9.89,22.58,14.84,33.87,.43,.97,1.02,1.87,1.85,3.38Zm-24.57-59.37c.8-1.11,.99-1.29,1.09-1.51,1.15-2.62,2.3-5.25,3.42-7.88,11.75-27.68,22.75-55.6,26.1-85.81,1.05-9.44,1.48-18.93-1.15-28.23-2.84-10.05-8.8-14.94-19.2-16-10.07-1.03-17.57,2.89-22.23,11.77-1.09,2.08-2.32,4.28-2.66,6.54-1.38,9.2-3.34,18.44-3.45,27.69-.26,21.18,3.62,41.91,9.13,62.31,2.74,10.16,5.82,20.23,8.96,31.12ZM311.22,15.29c-4.95,4.94-10.03,10.02-14.98,14.97,6.83,6.85,13.86,13.9,20.61,20.67,5.03-4.97,10.14-10.01,15.11-14.91-6.9-6.9-13.93-13.92-20.74-20.73Zm-119.24,156.89c-5.36-5.41-10.58-10.67-15.9-16.02-3.04,8.11-6.16,16.46-9.57,25.59,9.22-3.46,17.47-6.56,25.47-9.57Z"/>
  <path class="cls-1" d="M221.57,102.16c-.09,3.26-2.73,5.76-6.04,5.73-3.29-.04-5.9-2.63-5.91-5.88,0-3.34,2.92-6.14,6.25-5.99,3.21,.15,5.8,2.93,5.71,6.14Z"/>
</svg>