<?xml version="1.0" encoding="UTF-8"?>
<svg id="_Слой_1" data-name="Слой 1" xmlns="http://www.w3.org/2000/svg" viewBox="0 0 360.71 360.71">
  <defs>
    <style>
      .cls-1 {
        fill: #02b0a4;
      }
    </style>
  </defs>
  <path class="cls-1" d="M135.97,0h224.74V296.6c-1.99,3.25-4.94,4.11-8.64,4.1-39.68-.08-79.36-.05-119.05-.04-1.47,0-2.94,.12-4.64,.2,0,1.67,0,2.94,0,4.22,0,15.73,0,31.46,0,47.2,0,6.75-1.73,8.44-8.59,8.44-70.44,0-140.88,0-211.32,0-6.71,0-8.47-1.79-8.47-8.61C0,257.71,0,163.32,0,68.92c0-7.19,1.68-8.86,8.97-8.86,39.56,0,79.13,0,118.69,0,1.47,0,2.93,0,4.66,0,0-1.86,0-3.13,0-4.41,0-15.61,.09-31.23-.07-46.84-.04-3.65,.69-6.63,3.72-8.81Zm80.11,348.55V72.3H12.21V348.55H216.08Zm132.36-60.11V12.23H157.41c1.96,1.42,3.24,2.37,4.54,3.3,20.33,14.53,40.61,29.13,61.05,43.5,3.99,2.8,5.5,5.95,5.49,10.83-.14,71.36-.1,142.73-.1,214.09,0,1.46,0,2.92,0,4.5h120.05ZM144.51,59.76h58.68c-19.9-14.21-39.09-27.91-58.68-41.9V59.76Z"/>
  <path class="cls-1" d="M114.14,228.39c-23.24,0-46.48,0-69.72,0-6.57,0-8.4-1.81-8.4-8.32,0-38.5,0-76.99,0-115.49,0-6.52,1.83-8.36,8.39-8.36,46.6,0,93.19,0,139.79,0,6.35,0,8.15,1.84,8.15,8.18,0,38.61,0,77.23,0,115.84,0,6.34-1.8,8.14-8.15,8.15-23.36,0-46.71,0-70.07,0Zm66.02-44.65V108.46H48.25v70.52c1.26-1,2.17-1.66,3.02-2.39,9.36-8.01,18.7-16.05,28.08-24.04,3.67-3.13,6.4-3.01,9.86,.31,1.02,.97,1.99,1.99,2.99,2.99,9.27,9.3,18.53,18.6,28.52,28.62,.89-1.3,1.49-2.52,2.39-3.43,7.26-7.34,14.57-14.65,21.89-21.93,3.86-3.83,6.65-3.82,10.59-.02,1.69,1.63,3.32,3.32,4.98,4.98,6.35,6.37,12.7,12.75,19.6,19.67Zm-29.16-12.24c-7.34,7.34-14.42,14.42-21.96,21.96,2.13,1.98,4.61,4.28,7.17,6.66-2.84,2.76-5.58,5.43-8.6,8.37-14.48-14.5-29.05-29.09-43.63-43.69-.43,.21-.77,.31-1.02,.53-11.15,9.53-22.3,19.06-33.42,28.63-.65,.56-1.4,1.49-1.42,2.25-.11,6.64-.06,13.29-.06,19.95H180.35c0-4.77,.07-9.32-.06-13.87-.03-.92-.62-2.01-1.29-2.69-9.41-9.51-18.87-18.96-28.01-28.1Z"/>
  <path class="cls-1" d="M30.12,300.47c0-7.63-.04-15.26,.01-22.88,.04-4.93,2.16-7.03,7.13-7.04,15.25-.03,30.51-.03,45.76,0,4.9,.01,7.13,2.21,7.14,7.09,.03,15.25,.03,30.51,0,45.76,0,4.98-2.11,7.16-7.01,7.17-15.37,.05-30.74,.05-46.12,0-4.8-.01-6.86-2.09-6.9-6.87-.06-7.74-.02-15.49-.02-23.23Zm47.78,17.95v-35.61H42.42v35.61h35.48Z"/>
  <path class="cls-1" d="M102.37,294.68h95.8v11.66H102.37v-11.66Z"/>
  <path class="cls-1" d="M102.28,330.35v-11.49h95.85v11.49H102.28Z"/>
  <path class="cls-1" d="M126.45,270.7h71.78v11.55H126.45v-11.55Z"/>
  <path class="cls-1" d="M102.47,270.66h11.49v11.67h-11.49v-11.67Z"/>
  <path class="cls-1" d="M288.5,222.5c-11.27,0-22.54,.01-33.81,0-6.27,0-8.16-1.93-8.17-8.22,0-10.8-.02-21.6,0-32.4,.01-5.43,1.99-7.52,7.4-7.53,23.13-.04,46.25-.04,69.38,0,5.22,.01,7.25,2.1,7.27,7.29,.04,11.15,.04,22.3,0,33.46-.02,5.33-2.12,7.38-7.56,7.4-11.5,.04-23.01,.01-34.51,.01Zm-29.74-35.96v23.71h59.56v-23.71h-59.56Z"/>
  <path class="cls-1" d="M288.8,30.12c11.39,0,22.77-.02,34.16,0,5.71,.01,7.6,1.9,7.62,7.59,.03,10.92,.03,21.83,0,32.75-.01,5.64-2.03,7.7-7.58,7.7-23.01,.02-46.02,.02-69.03,0-5.34,0-7.44-2.12-7.45-7.48-.02-11.15-.03-22.3,0-33.46,.02-4.99,2.06-7.07,7.05-7.09,11.74-.05,23.48-.02,35.22-.02Zm-30,12.14v23.66h59.48v-23.66h-59.48Z"/>
  <path class="cls-1" d="M330.41,114.42v11.53h-83.61v-11.53h83.61Z"/>
  <path class="cls-1" d="M246.68,150.02v-11.59h83.61v11.59h-83.61Z"/>
  <path class="cls-1" d="M246.67,270.33v-11.59h83.65v11.59h-83.65Z"/>
  <path class="cls-1" d="M330.43,90.41v11.54h-59.64v-11.54h59.64Z"/>
  <path class="cls-1" d="M330.4,234.77v11.5h-59.58v-11.5h59.58Z"/>
  <path class="cls-1" d="M258.36,90.42v11.57h-11.56v-11.57h11.56Z"/>
  <path class="cls-1" d="M246.73,234.68h11.54v11.6h-11.54v-11.6Z"/>
  <path class="cls-1" d="M138.19,138.2c.03,10.06-8.08,18.21-18.06,18.14-9.8-.07-17.89-8.18-17.94-17.99-.04-10.03,8.05-18.07,18.14-18.03,9.97,.04,17.83,7.91,17.86,17.88Zm-12.03,.05c-.01-3.41-2.62-5.95-6.04-5.9-3.21,.05-5.81,2.6-5.89,5.77-.09,3.22,2.72,6.13,5.94,6.18,3.25,.04,6.01-2.74,6-6.05Z"/>
  <path class="cls-1" d="M66.35,132.05v-11.55h11.54v11.55h-11.54Z"/>
  <path class="cls-1" d="M156.49,144.03v-11.47h11.66v11.47h-11.66Z"/>
</svg>