<?xml version="1.0" encoding="UTF-8"?>
<svg id="_Слой_1" data-name="Слой 1" xmlns="http://www.w3.org/2000/svg" viewBox="0 0 417.01 834">
  <defs>
    <style>
      .cls-1 {
        fill: #fff;
      }
    </style>
  </defs>
  <path class="cls-1" d="M330.42,731.14c-.28,0-29.05,9.73-54,9.73-13.9,0-19.6-2.99-21.2-4.31-8.97-5.98-25.23-17.37,2.71-72.77l52.12-103.97c30.93-61.93,35.58-121.35,12.79-168.33-18.49-38.02-54.07-64.36-100.22-73.6-16.26-3.54-33.08-5.14-49.97-5.14-96.33,0-161.24,56.22-163.95,58.66-9.24,8.13-11.4,21.96-5.14,32.6,6.25,10.84,19.25,15.71,30.93,11.61,.28,0,29.05-9.73,54.28-9.73,13.62,0,19.04,2.99,20.92,4.03,8.69,6.25,24.95,17.65-2.71,73.05l-52.12,103.97c-30.93,61.93-35.58,121.62-12.79,168.33,18.48,38.02,54.07,64.36,100.22,73.6,16.26,3.26,33.08,5.14,49.69,5.14,96.33,0,161.24-56.23,163.95-58.66,9.52-8.13,11.67-21.96,5.42-32.6-6.25-10.84-19.25-15.71-30.93-11.61h0Zm0,0"/>
  <path class="cls-1" d="M417.01,130.31c0,71.93-58.38,130.31-130.31,130.31s-130.31-58.38-130.31-130.31S214.77,0,286.7,0s130.31,58.38,130.31,130.31h0Zm0,0"/>
</svg>