<?xml version="1.0" encoding="UTF-8"?>
<svg id="_Слой_1" data-name="Слой 1" xmlns="http://www.w3.org/2000/svg" viewBox="0 0 1874.93 1875">
  <defs>
    <style>
      .cls-1 {
        fill: #01b0a4;
      }
    </style>
  </defs>
  <path class="cls-1" d="M625.05,937.5c0-172.58,139.87-312.52,312.45-312.52s312.52,139.94,312.52,312.52-139.94,312.52-312.52,312.52-312.45-139.94-312.45-312.52m-168.95,0c0,265.88,215.52,481.4,481.39,481.4s481.4-215.52,481.4-481.4-215.52-481.4-481.4-481.4-481.39,215.52-481.39,481.4m869.34-500.48c0,62.1,50.36,112.53,112.53,112.53s112.53-50.43,112.53-112.53-50.36-112.45-112.53-112.45-112.53,50.36-112.53,112.45M558.72,1700.6c-91.4-4.16-141.08-19.39-174.1-32.26-43.77-17.04-74.97-37.33-107.84-70.12-32.79-32.79-53.16-63.99-70.12-107.76-12.88-33.02-28.1-82.69-32.26-174.09-4.54-98.82-5.45-128.51-5.45-378.86s.98-279.96,5.45-378.86c4.16-91.4,19.46-141,32.26-174.09,17.04-43.77,37.33-74.97,70.12-107.84,32.79-32.79,63.99-53.16,107.84-70.12,33.02-12.87,82.7-28.09,174.1-32.26,98.82-4.54,128.51-5.45,378.78-5.45s279.96,.98,378.86,5.45c91.4,4.16,141,19.46,174.09,32.26,43.77,16.96,74.97,37.34,107.84,70.12,32.79,32.79,53.09,64.06,70.12,107.84,12.87,33.02,28.09,82.69,32.26,174.09,4.54,98.9,5.45,128.51,5.45,378.86s-.91,279.96-5.45,378.86c-4.16,91.4-19.46,141.08-32.26,174.09-17.04,43.77-37.34,74.97-70.12,107.76-32.79,32.79-64.06,53.08-107.84,70.12-33.02,12.88-82.69,28.1-174.09,32.26-98.82,4.54-128.51,5.45-378.86,5.45s-279.96-.91-378.78-5.45M550.99,5.68c-99.81,4.54-167.96,20.37-227.56,43.54-61.64,23.93-113.9,56.04-166.07,108.14-52.1,52.1-84.21,104.35-108.14,166.07-23.17,59.6-39,127.75-43.54,227.56C1.06,650.95,0,682.91,0,937.5s1.06,286.55,5.68,386.51c4.54,99.81,20.37,167.96,43.54,227.56,23.93,61.64,55.96,113.97,108.14,166.07,52.1,52.1,104.35,84.13,166.07,108.14,59.67,23.17,127.75,39,227.56,43.54,100.03,4.54,131.92,5.68,386.51,5.68s286.55-1.06,386.51-5.68c99.81-4.54,167.96-20.37,227.56-43.54,61.64-24,113.9-56.04,166.07-108.14,52.1-52.1,84.13-104.43,108.14-166.07,23.17-59.6,39.07-127.75,43.54-227.56,4.54-100.03,5.61-131.92,5.61-386.51s-1.06-286.55-5.61-386.51c-4.54-99.81-20.37-167.96-43.54-227.56-24-61.64-56.04-113.9-108.14-166.07-52.1-52.1-104.43-84.21-166-108.14-59.67-23.17-127.82-39.07-227.56-43.54C1224.12,1.14,1192.17,0,937.57,0s-286.55,1.06-386.59,5.68"/>
</svg>