<?xml version="1.0" encoding="UTF-8"?>
<svg id="_Слой_1" data-name="Слой 1" xmlns="http://www.w3.org/2000/svg" viewBox="0 0 84.31 99.03">
  <defs>
    <style>
      .cls-1 {
        fill: #6d6e6f;
      }
    </style>
  </defs>
  <g id="_Слой_2" data-name=" Слой 2">
    <path class="cls-1" d="M30.72,45.38c-.41-.03-.73-.38-.72-.8l.51-29.63c-.25-3.63,2.71-6.54,5.87-6.4,2.78,.13,5.26,2.61,5.35,5.78,.09,8.64,.17,17.28,.26,25.93,.04,.27,.24,.49,.49,.55,.3,.07,.63-.12,.74-.44,1.96-12.23,3.93-24.46,5.89-36.68,.05-.28,.12-.56,.25-.82,1.03-2.03,3.28-3.18,5.5-2.79,2.09,.36,3.76,2,4.18,4.1,.06,.29,.05,.59,.02,.89l-4.01,33.17c-.15,.66,.31,1.21,.78,1.24,.37,.02,.59-.18,.89-.76,.47-.94,2.03-8.13,7.8-27.21,1.02-2.65,3.97-3.98,6.51-3.07,2.37,.85,3.8,3.44,3.21,6.01-2.46,10.03-4.93,20.06-7.39,30.1-.12,.59-.04,1.22,.37,1.36,.35,.12,.84-.11,1.06-.59,3.08-5.69,5.73-10.56,8.81-16.25,.96-1.44,2.64-2.74,5.23-1.45,1.79,.9,2.47,3.11,1.65,4.94-4.47,9.93-6.58,17.45-7.98,23.11-3.11,12.66-2.6,18.63-7.82,27.96-2.85,5.1-6.03,10.6-12.66,13.54-8.7,3.86-17.4,.62-19.38,0-1.28-.4-6.11-1.84-10.46-6.61-4.35-4.76-12.94-21.38-12.94-21.38-4.06-6.71-8.12-13.42-12.18-20.13-.13-.22-.25-.45-.32-.7-.62-2.15,.04-4.44,1.66-5.8,1.94-1.63,4.82-1.74,6.95-.02,.28,.22,.65,.66,.86,.94l18.39,24.95,10.35,15.19c.44,.74,1.4,.96,2.11,.53,.73-.45,.94-1.46,.43-2.18-1.39-2.97-2.79-5.94-4.18-8.92-.08-.26-.02-.54,.17-.71,.24-.22,.66-.21,.94,.05,3.49,4.44,6.97,8.88,10.46,13.32,.72,.65,1.71,.81,2.44,.42,.97-.52,1.38-1.98,.65-3.17-2.74-3.82-5.49-7.63-8.23-11.45-.14-.28-.12-.61,.05-.84,.23-.31,.73-.41,1.14-.15l12,12c.75,.5,1.69,.51,2.35,.04,.83-.6,1.08-1.9,.41-2.9-3.82-4.18-7.63-8.37-11.45-12.55-.22-.29-.22-.68-.02-.94,.25-.31,.77-.37,1.12-.06,3.3,2.46,6.61,4.92,9.91,7.38,.88,.52,2.02,.28,2.64-.53,.61-.81,.52-1.96-.21-2.66-8.47-7.68-13.79-12.25-16.07-13.76-.44-.29-1.78-1.14-1.73-2.22,.02-.38,.2-.72,.46-1.01,.56-.64,1.42-.95,2.28-.93l10.02,.27c1.53,.19,2.88-.89,3.05-2.25,.19-1.48-1.05-2.96-2.72-2.97l-25.7-2.06-.04,.02Z"/>
  </g>
</svg>