<?xml version="1.0" encoding="UTF-8"?>
<svg id="_Слой_2" data-name="Слой 2" xmlns="http://www.w3.org/2000/svg" viewBox="0 0 466 226.12">
  <defs>
    <style>
      .cls-1 {
        fill: #fff;
      }
    </style>
  </defs>
  <path class="cls-1" d="M72,36c32.31,12.14,59.16,12.86,75,12,26.48-1.43,47.4-8.63,57-12,29-10.19,33.35-18.45,62-27,12-3.58,28.33-8.46,47.26-8,36.85,.89,65.16,21.55,80.15,35-37.97-13.19-66-10.26-81.4-7-17.48,3.7-35.85,11.45-49,17-22.11,9.33-26.83,13.67-44,20-4.1,1.51-29.9,10.88-52,12-44.61,2.26-81.06-28.72-95-42Z"/>
  <path class="cls-1" d="M72,184c32.31,12.14,59.16,12.86,75,12,26.48-1.43,47.4-8.63,57-12,29-10.19,33.35-18.45,62-27,12-3.58,28.33-8.46,47.26-8,36.85,.89,65.16,21.55,80.15,35-37.97-13.19-66-10.26-81.4-7-17.48,3.7-35.85,11.45-49,17-22.11,9.33-26.83,13.67-44,20-4.1,1.51-29.9,10.88-52,12-44.61,2.26-81.06-28.72-95-42Z"/>
  <path class="cls-1" d="M0,88c23.68,13.51,74.01,38.29,130,35,26.37-1.55,57.11-9.5,59-10,24.71-6.48,37.86-12.95,54-19,10.28-3.86,60.7-22.15,104-21,18.18,.48,65.54,5.19,119,54-55.57-29.45-97.94-28.55-119-26-25.81,3.12-56.28,13.15-68,17-28.93,9.52-37.31,15.34-63,23-29.97,8.93-56.35,12.26-68,13C81.59,158.19,21.54,107.8,0,88Z"/>
</svg>