<?xml version="1.0" encoding="UTF-8"?>
<svg id="_Слой_2" data-name="Слой 2" xmlns="http://www.w3.org/2000/svg" viewBox="0 0 988.01 547.36">
  <defs>
    <style>
      .cls-1 {
        fill: #fff;
      }

      .cls-2 {
        fill: #00b0a4;
      }
    </style>
  </defs>
  <path class="cls-2" d="M329.01,36c32.31,12.14,59.16,12.86,75,12,26.48-1.43,47.4-8.63,57-12,29-10.19,33.35-18.45,62-27,12-3.58,28.33-8.46,47.26-8,36.85,.89,65.16,21.55,80.15,35-37.97-13.19-66-10.26-81.4-7-17.48,3.7-35.85,11.45-49,17-22.11,9.33-26.83,13.67-44,20-4.1,1.51-29.9,10.88-52,12-44.61,2.26-81.06-28.72-95-42Z"/>
  <path class="cls-2" d="M329.01,184c32.31,12.14,59.16,12.86,75,12,26.48-1.43,47.4-8.63,57-12,29-10.19,33.35-18.45,62-27,12-3.58,28.33-8.46,47.26-8,36.85,.89,65.16,21.55,80.15,35-37.97-13.19-66-10.26-81.4-7-17.48,3.7-35.85,11.45-49,17-22.11,9.33-26.83,13.67-44,20-4.1,1.51-29.9,10.88-52,12-44.61,2.26-81.06-28.72-95-42Z"/>
  <path class="cls-2" d="M257.01,88c23.68,13.51,74.01,38.29,130,35,26.37-1.55,57.11-9.5,59-10,24.71-6.48,37.86-12.95,54-19,10.28-3.86,60.7-22.15,104-21,18.18,.48,65.54,5.19,119,54-55.57-29.45-97.94-28.55-119-26-25.81,3.12-56.28,13.15-68,17-28.93,9.52-37.31,15.34-63,23-29.97,8.93-56.35,12.26-68,13-66.41,4.19-126.46-46.2-148-66Z"/>
  <g>
    <path class="cls-1" d="M0,424.77v-128.16H51.26c9.14,0,16.52,1.82,22.16,5.47,5.64,3.65,9.76,8.23,12.37,13.75,2.61,5.52,3.92,11.1,3.92,16.73,0,7.18-1.62,13.14-4.85,17.89-3.23,4.75-7.67,7.92-13.31,9.52v-4.45c8.01,1.66,14.02,5.37,18.02,11.12,4,5.76,6.01,12.19,6.01,19.31,0,7.65-1.41,14.39-4.23,20.2-2.82,5.82-7.11,10.37-12.86,13.66-5.76,3.29-12.99,4.94-21.72,4.94H0Zm24.56-78.14h26.34c2.73,0,5.16-.47,7.3-1.42,2.14-.95,3.83-2.42,5.07-4.41,1.25-1.99,1.87-4.55,1.87-7.7,0-3.92-1.22-7.21-3.65-9.88-2.43-2.67-5.96-4-10.59-4H24.56v27.41Zm0,55.36h29.73c3.26,0,6.17-.7,8.72-2.09,2.55-1.39,4.55-3.35,6.01-5.87,1.45-2.52,2.18-5.5,2.18-8.95,0-3.03-.62-5.72-1.87-8.1-1.25-2.37-3.13-4.26-5.65-5.65-2.52-1.39-5.65-2.09-9.39-2.09H24.56v32.75Z"/>
    <path class="cls-1" d="M115.17,424.77v-128.16h24.21v128.16h-24.21Z"/>
    <path class="cls-1" d="M219.47,427.44c-8.07,0-15.75-1.44-23.05-4.32s-13.75-7.13-19.36-12.77c-5.61-5.64-10.03-12.61-13.26-20.92-3.23-8.31-4.85-17.89-4.85-28.75,0-14.18,2.71-26.24,8.14-36.18,5.43-9.94,12.73-17.52,21.89-22.74,9.17-5.22,19.33-7.83,30.48-7.83,16.49,0,29.46,3.83,38.89,11.48,9.43,7.65,15.75,18.48,18.96,32.48l-24.74,3.56c-2.31-7.48-6.1-13.45-11.35-17.93-5.25-4.48-11.97-6.75-20.16-6.81-8.13-.12-14.89,1.63-20.29,5.25-5.4,3.62-9.45,8.75-12.15,15.4-2.7,6.65-4.05,14.42-4.05,23.32s1.35,16.61,4.05,23.14c2.7,6.53,6.75,11.6,12.15,15.22,5.4,3.62,12.16,5.49,20.29,5.61,5.52,.12,10.52-.83,15-2.85,4.48-2.02,8.26-5.19,11.35-9.52,3.08-4.33,5.28-9.88,6.59-16.64h-20.29v-18.69h46.1c.12,.77,.21,2.14,.27,4.09,.06,1.96,.09,3.08,.09,3.38,0,12.28-2.49,23.17-7.48,32.66s-12.02,16.92-21.09,22.29c-9.08,5.37-19.79,8.05-32.13,8.05Z"/>
    <path class="cls-1" d="M360.45,424.77l-37.56-128.16h25.45l24.03,88.11,24.03-87.93,25.45-.18,24.03,88.11,24.03-88.11h25.45l-37.56,128.16h-23.85l-24.83-86.51-24.83,86.51h-23.85Z"/>
    <path class="cls-1" d="M488.25,424.77l39.16-128.16h36.13l39.16,128.16h-24.92l-34.89-113.03h4.63l-34.35,113.03h-24.92Zm23.5-26.7v-22.61h67.64v22.61h-67.64Z"/>
    <path class="cls-1" d="M633.14,424.77l-37.56-128.16h25.45l24.03,88.11,24.03-87.93,25.45-.18,24.03,88.11,24.03-88.11h25.45l-37.56,128.16h-23.85l-24.83-86.51-24.83,86.51h-23.85Z"/>
    <path class="cls-1" d="M782.31,424.77v-128.16h83.66v22.61h-59.45v27.41h48.77v22.61h-48.77v32.93h59.45v22.61h-83.66Z"/>
    <path class="cls-1" d="M935.74,427.44c-9.49,0-18.05-1.68-25.68-5.03-7.62-3.35-13.88-8.16-18.78-14.42-4.9-6.26-8-13.72-9.3-22.38l25.28-3.74c1.78,7.36,5.46,13.03,11.04,17,5.58,3.98,11.93,5.96,19.05,5.96,3.97,0,7.83-.62,11.57-1.87s6.81-3.08,9.21-5.52c2.4-2.43,3.6-5.43,3.6-8.99,0-1.3-.19-2.57-.58-3.78-.39-1.21-1.02-2.36-1.91-3.43-.89-1.07-2.15-2.08-3.78-3.03-1.63-.95-3.69-1.81-6.19-2.58l-33.29-9.79c-2.49-.71-5.38-1.72-8.68-3.03-3.29-1.3-6.48-3.17-9.57-5.61-3.09-2.43-5.65-5.65-7.7-9.66-2.05-4.01-3.07-9.06-3.07-15.17,0-8.6,2.17-15.75,6.5-21.45s10.12-9.94,17.36-12.73c7.24-2.79,15.25-4.15,24.03-4.09,8.84,.12,16.73,1.63,23.67,4.54,6.94,2.91,12.76,7.14,17.44,12.68,4.69,5.55,8.07,12.33,10.15,20.34l-26.17,4.45c-.95-4.15-2.7-7.65-5.25-10.5-2.55-2.85-5.59-5.01-9.12-6.5-3.53-1.48-7.22-2.28-11.08-2.4-3.8-.12-7.37,.4-10.72,1.56-3.35,1.16-6.08,2.83-8.19,5.03-2.11,2.2-3.16,4.81-3.16,7.83,0,2.79,.86,5.06,2.58,6.81,1.72,1.75,3.89,3.16,6.5,4.23,2.61,1.07,5.28,1.96,8.01,2.67l22.25,6.05c3.32,.89,7,2.06,11.04,3.52,4.03,1.45,7.91,3.47,11.62,6.05,3.71,2.58,6.76,5.98,9.17,10.19,2.4,4.21,3.6,9.55,3.6,16.02,0,6.88-1.44,12.89-4.32,18.02-2.88,5.13-6.75,9.38-11.62,12.73-4.87,3.35-10.37,5.86-16.51,7.52-6.14,1.66-12.48,2.49-19,2.49Z"/>
  </g>
  <g>
    <path class="cls-1" d="M103.96,545.77v-76.32h24.7c.6,0,1.84,.02,3.71,.05,1.87,.04,3.67,.16,5.41,.37,6.15,.74,11.36,2.88,15.64,6.41,4.27,3.53,7.53,8.02,9.75,13.46,2.23,5.44,3.34,11.4,3.34,17.86s-1.11,12.42-3.34,17.86-5.48,9.93-9.75,13.46c-4.28,3.53-9.49,5.67-15.64,6.41-1.73,.21-3.53,.34-5.41,.37-1.87,.04-3.11,.05-3.71,.05h-24.7Zm14.63-13.57h10.07c.95,0,2.24-.03,3.87-.08,1.62-.05,3.09-.2,4.4-.45,3.32-.67,6.03-2.23,8.14-4.66,2.1-2.44,3.66-5.37,4.66-8.8s1.51-6.96,1.51-10.6-.52-7.44-1.56-10.87c-1.04-3.43-2.62-6.32-4.74-8.69-2.12-2.37-4.79-3.87-8-4.5-1.31-.28-2.77-.44-4.4-.48-1.63-.03-2.92-.05-3.87-.05h-10.07v49.18Z"/>
    <path class="cls-1" d="M179.22,545.77v-76.32h49.82v13.46h-35.4v16.32h29.04v13.46h-29.04v19.61h35.4v13.46h-49.82Z"/>
    <path class="cls-1" d="M258.19,545.77l-23.32-76.32h14.84l19.08,62.75,19.4-62.75h14.84l-23.32,76.32h-21.52Z"/>
    <path class="cls-1" d="M310.98,545.77v-76.32h49.82v13.46h-35.4v16.32h29.04v13.46h-29.04v19.61h35.4v13.46h-49.82Z"/>
    <path class="cls-1" d="M374.58,545.77v-76.32h14.42v62.86h32.86v13.46h-47.28Z"/>
    <path class="cls-1" d="M461.5,547.36c-7.63,0-14.21-1.66-19.74-4.98-5.53-3.32-9.79-7.97-12.77-13.94-2.99-5.97-4.48-12.91-4.48-20.83s1.49-14.86,4.48-20.83c2.99-5.97,7.24-10.62,12.77-13.94,5.53-3.32,12.11-4.98,19.74-4.98s14.21,1.66,19.74,4.98c5.53,3.32,9.79,7.97,12.77,13.94,2.98,5.97,4.48,12.92,4.48,20.83s-1.49,14.86-4.48,20.83c-2.99,5.97-7.24,10.62-12.77,13.94-5.53,3.32-12.11,4.98-19.74,4.98Zm0-13.57c4.84,.07,8.87-.97,12.08-3.13,3.21-2.15,5.63-5.21,7.23-9.17,1.61-3.96,2.41-8.59,2.41-13.89s-.8-9.89-2.41-13.78c-1.61-3.89-4.02-6.91-7.23-9.06-3.22-2.16-7.24-3.27-12.08-3.34-4.84-.07-8.87,.97-12.08,3.13-3.22,2.16-5.63,5.21-7.23,9.17-1.61,3.96-2.41,8.59-2.41,13.89s.8,9.89,2.41,13.78c1.61,3.89,4.02,6.91,7.23,9.06,3.21,2.16,7.24,3.27,12.08,3.34Z"/>
    <path class="cls-1" d="M509.09,545.77v-76.32h32.22c.74,0,1.74,.03,3,.08,1.25,.05,2.38,.17,3.37,.34,4.56,.71,8.29,2.21,11.21,4.51s5.06,5.19,6.44,8.67c1.38,3.48,2.07,7.36,2.07,11.63s-.7,8.15-2.09,11.63c-1.4,3.48-3.55,6.37-6.47,8.67s-6.63,3.8-11.16,4.5c-.99,.14-2.12,.25-3.39,.32-1.27,.07-2.26,.11-2.97,.11h-17.81v25.86h-14.42Zm14.42-39.33h17.17c.74,0,1.55-.03,2.44-.11,.88-.07,1.7-.21,2.44-.42,1.94-.53,3.45-1.42,4.5-2.68,1.06-1.25,1.79-2.65,2.2-4.19,.41-1.54,.61-2.99,.61-4.37s-.2-2.84-.61-4.37c-.41-1.54-1.14-2.93-2.2-4.19-1.06-1.25-2.56-2.15-4.5-2.68-.74-.21-1.55-.35-2.44-.42-.88-.07-1.7-.11-2.44-.11h-17.17v23.53Z"/>
    <path class="cls-1" d="M577.99,545.77v-76.32h12.93l25.23,50.67,25.23-50.67h12.93v76.32h-13.46v-45.58l-22.15,45.58h-5.09l-22.15-45.58v45.58h-13.46Z"/>
    <path class="cls-1" d="M669.15,545.77v-76.32h49.82v13.46h-35.4v16.32h29.04v13.46h-29.04v19.61h35.4v13.46h-49.82Z"/>
    <path class="cls-1" d="M731.69,545.77v-76.32h14.63l33.18,50.88v-50.88h14.63v76.32h-14.63l-33.18-50.88v50.88h-14.63Z"/>
    <path class="cls-1" d="M826.66,545.77v-62.86h-24.06v-13.46h62.54v13.46h-24.06v62.86h-14.42Z"/>
  </g>
</svg>