<svg id="Слой_1" data-name="Слой 1" xmlns="http://www.w3.org/2000/svg" viewBox="0 0 408.74 306.75"><defs><style>.cls-1{fill:#fff;}</style></defs><path class="cls-1" d="M1164.6,501.87c-2.52,8.5-7,15.32-15.43,19.19-.93.43-1.45,2.59-1.48,4-.28,10.77.22,21.6-.66,32.31-2.81,34.4-18.79,61.55-46.64,81.72-2.77,2-4,3.87-4,7.38.25,11.84.11,23.69.09,35.53,0,8.55-3,11.52-11.49,11.54-4.26,0-8.52-.09-12.77,0-4.51.12-7.57-1.85-9.54-5.86-4.23-8.58-8.63-17.08-12.77-25.7-1.07-2.23-2.28-3-4.81-3q-85,.13-170.05,0c-2.36,0-3.52.68-4.52,2.76-4.11,8.5-8.48,16.86-12.59,25.35-2.15,4.47-5.39,6.64-10.41,6.43-4.38-.19-8.78,0-13.17,0-7.19-.06-10.46-3.24-10.5-10.5-.08-12.64.06-25.28-.13-37.92a6.85,6.85,0,0,0-2.37-4.83C789.08,617.1,773,585.67,772.78,546c0-7-.07-14.11,0-21.16,0-2.21-.49-3.49-2.71-4.59a24.84,24.84,0,0,1-13.66-27.86,25.24,25.24,0,0,1,23.66-20.15c2-.12,4-.12,6-.12h327.09a16,16,0,0,0,.31-2.15c0-16.23.09-32.47,0-48.7a16.87,16.87,0,0,0-11.67-16.4c-7-2.27-14.82-.2-18.73,6-2.08,3.3-2.77,7.59-3.6,11.54-.54,2.55,0,5.31-.29,7.95a8.3,8.3,0,0,1-7.54,7.53c-3.85.41-8.09-2.09-8.65-6.11-1.86-13.16-.3-25.66,10-35.3,10.5-9.81,23-12.28,36.22-6.92,12.72,5.16,20.35,15.14,20.92,29,.67,16.07.27,32.19.34,48.29v5.24c3,0,5.67-.08,8.29,0,12.56.44,21.27,7.14,25,19.13.27.88.58,1.74.87,2.61ZM790.11,523.45c0,10.26-.22,20.09.06,29.91A84.39,84.39,0,0,0,802.28,595c18.82,31.26,46.72,47.14,83.18,47.33,45,.24,89.92.07,134.89,0,6.91,0,13.84.14,20.74-.17a94,94,0,0,0,83.72-61.4c6.91-18.51,5.64-37.64,5.48-56.75,0-.2-.31-.4-.43-.54H960.2v4.63c0,17.82,0,35.65,0,53.47,0,6.88-4.47,10.48-11.21,9.36q-49.35-8.25-98.68-16.45c-6.73-1.12-9.22-3.86-9.25-10.67,0-12,0-24,0-35.92v-4.5Zm68,35.12L943,572.69V489.41H858.14ZM960.48,489.1v17h175.85a26.41,26.41,0,0,0,4-.21,8.26,8.26,0,0,0,7.13-7.89,8.17,8.17,0,0,0-6.09-8.31,22.15,22.15,0,0,0-5.52-.53q-85.61,0-171.22,0Zm-119.7,16.67V489.1H827.14c-14.74,0-29.48,0-44.22,0-5.85,0-9.35,2.83-9.87,7.69-.59,5.42,3.32,9.22,9.83,9.24,18.32.06,36.65,0,55,0A29.3,29.3,0,0,0,840.78,505.77Zm13.43,149.7-12.85-4.27v25.15C844.6,676.1,851.51,664.63,854.21,655.47Zm211.57.15c3.31,6.64,6.37,13,9.65,19.18.5,1,2,1.39,3.63,2.47v-26.1Z" transform="translate(-755.86 -386.8)"/></svg>