<svg id="Слой_1" data-name="Слой 1" xmlns="http://www.w3.org/2000/svg" viewBox="0 0 384 303.54"><defs><style>.cls-1{fill:#fff;}</style></defs><path class="cls-1" d="M1152,600c-7.46,9.93-16.74,17.49-28.84,20.88-18.16,5.08-34.28.8-48.43-11.44-.93-.8-1.82-1.65-3-2.68-10.31,10.24-22.53,16.17-37.13,16.19s-26.86-5.84-37.37-16.25C987,617,974.76,622.9,960.19,623s-26.87-5.81-37.43-16.21c-10.28,10.13-22.44,16.16-37,16.21s-26.88-5.75-37.39-16.13c-.88.73-1.73,1.39-2.52,2.11-23.53,21.49-58.45,17.78-77.05-8.18A6.07,6.07,0,0,0,768,600v-3.75c3.86-5.28,7-5.34,11.28-.21,16.41,19.78,43.18,21,60.77,2.65a9.43,9.43,0,0,0,2.32-5.86c.22-12,.11-24,.11-36a31.48,31.48,0,0,1,.07-3.37c.41-3.53,2.72-5.66,6-5.39,3.44.28,5.15,2.36,5.19,5.71.09,6.87,0,13.75.06,20.62,0,4.5.54,9.08-.12,13.48-1.12,7.48,2.56,12,8.17,15.76,1.82,1.22,3.69,2.36,6.19,4v-5.29q0-71.8,0-143.61c0-18.85,7.92-33.19,25.17-41.28,26.34-12.35,57.81,7.32,58.55,36.41.33,13,.1,26,.12,39v4.33h14c.07-1,.22-2,.22-3.09,0-12.63.1-25.25,0-37.88-.26-28.19-19.61-51-47.36-56-30.87-5.57-62.18,18.24-64.42,49.52-.88,12.31-.45,24.72-.52,37.09-.07,13.5,0,27,0,40.5,0,1,0,2,0,3-.17,3.92-2.18,6.24-5.45,6.3s-5.7-2.36-5.78-6.42c-.11-5.63,0-11.25,0-16.88v-4.6H777a27.44,27.44,0,0,1-3.74-.1,5,5,0,0,1-4.71-5c-.22-2.83,1-4.9,3.8-5.7a16.07,16.07,0,0,1,4.44-.44q30.38,0,60.75,0h4.91c0-1.81,0-3.26,0-4.71.13-14.37-.43-28.79.53-43.1,2.34-35.1,33.44-62.7,68.58-61.29,26.69,1.08,45.94,14.15,58.56,37.42.35.66.68,1.33,1,2,0,.11.17.18.48.49.55-.94,1.11-1.79,1.58-2.69,13.86-27.14,42.37-41.4,72.47-36.26,28.2,4.82,50.94,29,54.6,58.29a145.1,145.1,0,0,1,.67,16.83c.1,10.84,0,21.69,0,32.83,1.64.08,3,.19,4.3.19,12.75,0,25.5.08,38.25,0,3.46,0,6.39.6,8.43,3.61v3.75c-1.68,3.44-4.6,4-8.12,4q-68.06-.12-136.11-.05h-4.66c-.12,1.16-.22,1.65-.22,2.14,0,27.62,0,55.25.09,82.87a7.86,7.86,0,0,0,2.2,4.8c17.48,18.63,44.68,17.33,61.29-2.83,3.61-4.38,7-4.47,10.45-.3,17.75,21.67,46.09,21.84,64,.37,4-4.8,7.31-4.64,11,.51Zm-62.24-102.66c0-4.81.06-9.28,0-13.75-.22-12.11.5-24.34-.93-36.3-3.66-30.45-34.39-52.51-64.37-47.06-27.87,5.06-47,27.79-47.07,56.15q-.11,73.68,0,147.36c0,1,.11,2.11.23,4.24,3.92-3,7.15-5.45,10.36-7.93,2.75-2.13,3.75-4.78,3.74-8.41-.15-36-.09-72-.09-108,0-9.25-.2-18.51.06-27.75.86-29.87,29.63-50,56.63-39.45,18.24,7.1,29.14,23.94,27.11,46.52a5.56,5.56,0,0,1-11.06-.05c-.29-2.84,0-5.74-.15-8.61a30.65,30.65,0,0,0-37.73-28.41c-13.85,3.42-23.41,15.85-23.56,31-.13,12.37,0,24.75,0,37.12,0,1.07.15,2.14.23,3.15h60.75c.19-.39.29-.5.29-.61,0-3.5,0-7,.1-10.5.06-4.07,2.17-6.62,5.49-6.71s5.7,2.55,5.75,6.82c0,3.71,0,7.41,0,11.19Zm-210-.16h60.76c0-14.47.21-28.68,0-42.88-.29-15.35-13.13-28.35-28.3-29.15-16.1-.84-31,10.42-32.17,26.07C878.9,466.34,879.77,481.61,879.77,497.18Zm-.25,78.1v36.46c4.72-.3,9.35-.14,13.79-1,10-1.86,17.89-7.39,24.16-15.26,2.12-2.67,4.55-4,7.74-2.45,1.36.68,2.37,2.14,3.42,3.35,9.86,11.29,22,16.69,37.27,14.78V575.28Zm.11-66.41v27.49h86.15V508.87Zm0,39.3v15.27h86.26V548.17Z" transform="translate(-768 -388.26)"/><path class="cls-1" d="M1034.66,675.73c-20.38,20.31-52,22.4-74.59.31-3.7,2.75-7.3,5.63-11.1,8.19-3.39,2.28-6.66,1.66-8.49-1.23s-.74-5.66,2.5-8.28A137.44,137.44,0,0,0,954.91,664c3.58-3.66,7-3.76,10.31.32,9.16,11.14,20.72,17.06,35.34,15.94,11.77-.9,21-6.68,28.45-15.53,4-4.73,7.07-4.8,10.93-.17,17.78,21.32,46.08,21.29,63.82,0,1-1.2,2.43-2.9,3.63-2.88,2.12.05,4.77.7,6.17,2.11,2.06,2.07,1.25,4.84-.55,7.13-7.31,9.32-16.49,16-28,19-17.94,4.68-33.81.36-47.68-11.77C1036.51,677.44,1035.69,676.67,1034.66,675.73Z" transform="translate(-768 -388.26)"/><path class="cls-1" d="M885.41,675.67c-8.1,7.78-17.2,13.51-28.33,15.26-20.67,3.25-37.18-4.13-50.14-20.13-2.38-2.94-2.05-6.31.44-8.33s6-1.55,8.48,1.55c9.09,11.15,20.52,17.25,35.17,16.3,11.64-.75,20.87-6.23,28.34-14.91,4.89-5.69,7.27-5.68,12.15,0,7.87,9.08,17.57,14.61,29.82,15a10.36,10.36,0,0,1,1.12.08c3.74.46,6.1,2.86,5.92,6s-2.72,5.27-6.52,5.24c-12-.1-22.4-4.35-31.6-11.84C888.63,678.54,887.08,677.11,885.41,675.67Z" transform="translate(-768 -388.26)"/></svg>