<svg id="Слой_1" data-name="Слой 1" xmlns="http://www.w3.org/2000/svg" viewBox="0 0 408.8 300.27"><defs><style>.cls-1{fill:#fff;}</style></defs><path class="cls-1" d="M1164.6,686.31c-2.39,3.36-5.72,4.06-9.69,4.05q-194.78-.11-389.55-.06c-7.75,0-9.56-1.83-9.56-9.69q0-32.13,0-64.26c0-7,2-9.06,9-9.08H781V568.94c-3.73,0-7.54.06-11.34,0-5.41-.1-8.13-3.26-7.26-8.51q3-17.89,6-35.77c.88-5.09,2.91-6.77,8.11-6.8q11.17-.06,22.35,0c5.17,0,7.15,1.7,8,6.87q3.09,17.88,6.06,35.77c.84,5-1.81,8.26-7,8.42-3.83.11-7.66,0-11.72,0v38h25.9c6.36-21.94,23-27,43.78-25,.14-1.35.33-2.35.33-3.35,0-5.45-.12-10.91.08-16.36.36-10.34,7.91-18.51,18.11-18.71q26.54-.51,53.08,0c10.34.21,17.87,8.52,18.13,19.11.15,6.22,0,12.44,0,18.85h12.79c0-6.16-.09-12.35,0-18.54.18-9.93,6.45-17.49,15.85-19.22a29.69,29.69,0,0,1,5.17-.34q23.55,0,47.09,0c13.51,0,21.24,7.79,21.28,21.34,0,5.45,0,10.9,0,17,2.46,0,4.8.13,7.11,0,16.93-1.16,31.6,6.31,37.09,25.43H1126V568.94c-3.73,0-7.53.06-11.33,0-5.41-.1-8.13-3.26-7.26-8.51q3-17.89,6.05-35.77c.88-5.1,2.9-6.77,8.1-6.8q11.18-.06,22.36,0c5.17,0,7.15,1.71,8,6.87q3.09,17.87,6.06,35.76c.84,5-1.81,8.22-7,8.44-2,.08-4,0-6,0h-5.74v38.33c5.13,0,10.39.17,15.63-.06,4-.17,7.3.69,9.69,4Zm-76.77-40.9c.05-1,.11-1.52.11-2,0-9.71.11-19.43,0-29.14-.16-11.54-8.14-19.67-19.67-19.69q-108-.1-215.94,0c-11.74,0-19.7,8.14-19.84,19.93-.1,9.44,0,18.89,0,28.34a23,23,0,0,0,.32,2.61Zm-.07,13.23h-255v18.69h255Zm-318.9-38.42v57h44.21v-57Zm382.82.15h-44.35v56.91h44.35Zm-274.5-38.93H941c0-6.39.12-12.5,0-18.6-.1-4.05-2.51-6.57-6.53-6.6q-25.34-.16-50.67,0c-4,0-6.44,2.54-6.54,6.59C877.06,568.93,877.18,575,877.18,581.44Zm166.06.2c0-5.63,0-10.92,0-16.21a26,26,0,0,0-.07-3.19c-.46-3.7-2.8-6-6.72-6-16.76-.09-33.52-.06-50.28,0-3.27,0-6.17,1.62-6.39,4.86-.44,6.81-.13,13.67-.13,20.57ZM799.32,556l-4.24-25.24H780.35c-1.39,8.41-2.75,16.71-4.16,25.24Zm344.9,0L1140,530.74H1125.3c-1.39,8.37-2.78,16.68-4.2,25.25Z" transform="translate(-755.8 -390.09)"/><path class="cls-1" d="M953.7,390.09h67.42c7.34,0,9.34,2,9.34,9.11q0,48.46,0,96.94c0,6.91-2.06,8.92-9.12,8.92H886.11c-6.93,0-8.94-2.05-9-9.1q0-48.46,0-96.94c0-6.91,2.06-8.92,9.11-8.92ZM973,470.5c6.53-6.56,12.7-12.77,18.9-19,5.42-5.42,8.59-5.26,13.36.64,1.76,2.18,3.49,4.37,5.25,6.54l6.94,8.53V403.13H890.28v55.81l31.05-26.57c6.29-5.38,8.24-5.31,14,.49Zm-83.06,21.56h128c-.39-1.81-.26-3.66-1.1-4.76-6.13-7.94-12.45-15.72-18.9-23.8-6.51,6.52-12.68,12.74-18.89,18.92-4.61,4.58-7.61,4.59-12.2,0Q953.6,469.24,940.37,456c-4.11-4.13-8.15-8.32-12.32-12.57-12.47,10.7-24.59,21.06-36.64,31.5a4.63,4.63,0,0,0-1.41,3C889.85,482.51,889.94,487.15,889.94,492.06Z" transform="translate(-755.8 -390.09)"/><path class="cls-1" d="M979.44,409.29a19.13,19.13,0,1,1-19.21,18.95A19.27,19.27,0,0,1,979.44,409.29Zm6.25,19.1a6.33,6.33,0,1,0-6.41,6.35A6.54,6.54,0,0,0,985.69,428.39Z" transform="translate(-755.8 -390.09)"/></svg>