<svg id="Слой_1" data-name="Слой 1" xmlns="http://www.w3.org/2000/svg" viewBox="0 0 479.09 343.46"><defs><style>.cls-1{fill:#fff;}</style></defs><path class="cls-1" d="M720,406.68c2.1-4.57,5.77-6,10.62-5.92,9,.19,18.08,0,27.12.07,7.45.06,10.08,2.71,10.08,10.22q0,71.57,0,143.13v6.22h5.78c17.46.1,35-.66,52.36.47,40.88,2.67,69.45,33.61,69.74,74.61.15,22,0,44,0,65.95,0,7.92-2.76,10.68-10.67,10.74-9,.07-18.08.09-27.12,0-7.43-.08-10.1-2.74-10.12-10.25q-.1-33.45,0-66.89c0-10.5-3.53-19-13.27-23.84a27.25,27.25,0,0,0-11.2-2.62c-17.46-.27-34.92-.13-52.38-.11a24.19,24.19,0,0,0-3.12.44v5.67q0,43.26,0,86.53c0,8.68-2.39,11-11.14,11.09s-17.46-.08-26.19,0c-4.8.06-8.54-1.36-10.5-6.06Zm31.88,289.26V690.7q0-43.5,0-87c0-8.58,2.62-11.28,11.09-11.3,19.33,0,38.67-.35,58,.18,6.68.18,13.84,1.35,19.85,4.1,16.14,7.4,22.91,21.16,23,38.51.06,18.39,0,36.79,0,55.19v5.5h15.54a11.28,11.28,0,0,0,.4-2c0-20.42.66-40.87-.2-61.26-1.35-32-23.73-54.4-55.84-55.91-19.75-.93-39.58-.24-59.38-.28-10.22,0-12.42-2.17-12.42-12.25V417.07H736.25V695.94Z" transform="translate(-720 -368.78)"/><path class="cls-1" d="M855.71,464.67c0-10.69.07-20.66-.11-30.63a4.43,4.43,0,0,0-2.33-3.21c-14.81-6-21.51-17.17-21.51-32.82,0-6.55-.11-13.1,0-19.64s2.93-9.44,9.49-9.49q22.46-.19,44.91,0c6.16.05,9.33,2.79,9.42,8.58.16,9,.36,18.13-.51,27.1-1.2,12.36-8.24,20.93-19.73,25.6-2.66,1.08-3.88,2.22-3.81,5.3.23,9.49.08,19,.08,28.85h183.24a30,30,0,0,0,.39-3.42c0-5.61-.35-11.26.11-16.83.64-7.71-.35-13.05-8.92-16.87-9.56-4.27-14.27-13.72-14.8-24.41-.41-8.4-.24-16.83-.13-25.25.06-5.47,2.86-8.53,8.35-8.6q23.38-.27,46.78,0c5.7.07,8.47,3.17,8.55,8.92.11,7.64.27,15.29,0,22.92-.57,14.11-7.35,24.09-20.5,29.64-1.26.53-3.17,1.75-3.19,2.69-.23,10.41-.14,20.82-.14,31.57,10.2,0,19.85,0,29.49,0,7.65,0,10.31,2.73,10.34,10.48q0,13.57,0,27.14c0,7.43-2.74,10.18-10.14,10.19q-46.54,0-93.09-.06c-3.12,0-5,.85-6.81,3.57a104.58,104.58,0,0,0-17.56,58.2c0,16.06-.25,32.14.31,48.19.9,26.12,9.65,49.62,25.06,70.67,1.57,2.14,3.34,4.14,4.77,6.36,3.72,5.77.77,11.89-6,12.64a33.31,33.31,0,0,1-3.74.12q-44.43,0-88.88,0a19.78,19.78,0,0,1-6.45-.7c-5.12-1.8-6.26-7.75-2.79-12.83,4.65-6.81,9.69-13.41,13.73-20.57,10.86-19.25,15.9-40.14,15.92-62.22,0-15.91.22-31.82-.32-47.71-.66-19.48-7.12-37.21-18.2-53.19-1-1.39-3.56-2.33-5.4-2.34-28.06-.15-56.13-.1-84.2-.1-9.21,0-11.6-2.4-11.63-11.64,0-8.57-.06-17.15,0-25.73.07-7.67,2.87-10.43,10.47-10.45C835.89,464.64,845.52,464.67,855.71,464.67Zm93,81.07c.84,7.26,2.24,14.62,2.44,22,.45,16.19.42,32.41.33,48.62a143.74,143.74,0,0,1-21.76,76.23,29.54,29.54,0,0,0-1.49,3.22h62.84c-.58-1.13-.88-1.82-1.27-2.45-15.92-25.43-22.93-53.25-22.25-83.12.49-21.56-1.79-43.25,3.4-65C959.66,553.12,959.66,553.12,948.72,545.74Zm62-64.74H908.53l51.13,51.12Zm8.08,15.22h76V480.61c-19.54,0-38.7,0-57.86.07a5.86,5.86,0,0,0-3.66,1.44C1028.68,486.47,1024.17,491,1018.82,496.22Zm-118.51.13c-3.5-3.4-6.5-5.73-8.73-8.64-4.48-5.82-10-7.58-17.31-7.27-14,.59-28,.17-42.22.17v15.74ZM847.79,385.09c0,4.93,0,9.28,0,13.63a36.85,36.85,0,0,0,.26,4.2,15.75,15.75,0,0,0,14.81,13.75c7,.5,14.59-4.23,15.86-11.18,1.21-6.6.94-13.47,1.32-20.4Zm231.45.11h-31.76c0,5.65-.17,10.94,0,16.21a15.85,15.85,0,0,0,31.66.51C1079.52,396.5,1079.24,391,1079.24,385.2Z" transform="translate(-720 -368.78)"/><path class="cls-1" d="M1151.26,560.4V412.25c0-9.11,2.26-11.41,11.22-11.43s17.78-.06,26.67,0c7.13.06,9.92,2.84,9.92,10q0,145.74,0,291.47c0,6.86-2.78,9.78-9.56,9.88q-14.27.21-28.53,0c-7.09-.09-9.7-2.88-9.71-10.15q0-43.75,0-87.49V608.9a19.05,19.05,0,0,0-2.7-.44c-17.62,0-35.25-.31-52.86.08-15.23.33-24.27,10.24-24.36,26.08-.12,21.68,0,43.36,0,65a41.7,41.7,0,0,1-.28,5.59c-.52,3.88-2.82,6.52-6.69,6.6-11.22.24-22.44.34-33.65,0-5-.15-7.3-3.71-7.31-10.08,0-22.46-.07-44.91,0-67.37a76.85,76.85,0,0,1,1.1-12.57c6.29-36.22,36.15-61.06,73.88-61.42,15.75-.15,31.5,0,47.25,0Zm-96,135.53c0-2.91,0-5.24,0-7.57.19-20.26-.1-40.54.72-60.77.71-17.54,17.18-33.92,34.79-34.55,21.64-.78,43.31-.52,65-.63,8.81,0,11.4,2.62,11.41,11.44q0,43.26,0,86.53v5.56h15.67V417.14h-15.67V423q0,71.1,0,142.2c0,8.55-2.58,11.14-11.16,11.15-18.71,0-37.41-.06-56.12.07a73.7,73.7,0,0,0-13.94,1.16c-27.88,5.54-46.42,28.61-46.63,57.91-.13,18.71,0,37.42,0,56.13,0,1.36.16,2.72.26,4.28Z" transform="translate(-720 -368.78)"/></svg>