<?xml version="1.0" encoding="UTF-8"?>
<svg id="_Слой_1" data-name="Слой 1" xmlns="http://www.w3.org/2000/svg" viewBox="0 0 272.6 409.36">
  <defs>
    <style>
      .cls-1 {
        fill: #02b0a4;
      }
    </style>
  </defs>
  <path class="cls-1" d="M133.97,409.36c-2.19-2.38-4.96-4.44-6.49-7.2-36.71-66.12-73.3-132.31-109.89-198.49C3.73,178.62-2.48,151.71,.91,123.35,6.79,73.95,31.8,36.72,76.64,14.83,122.98-7.8,168.97-4.33,211.99,23.86c33.89,22.21,53.52,54.48,59.23,94.74,4.24,29.94-1.32,58.24-15.92,84.69-36.61,66.33-73.28,132.62-110.05,198.86-1.53,2.75-4.3,4.81-6.49,7.2h-4.79Zm2.82-340.68c-36.8-.71-67.66,29.6-68.45,67.23-.78,37.24,29.42,68.35,67,69.03,37.52,.67,68.4-29.46,69.05-67.38,.64-37.41-29.52-68.14-67.61-68.87Z"/>
</svg>