<?xml version="1.0" encoding="UTF-8"?>
<svg id="_Слой_1" data-name="Слой 1" xmlns="http://www.w3.org/2000/svg" viewBox="0 0 202.02 246.91">
  <defs>
    <style>
      .cls-1 {
        fill: #fff;
      }
    </style>
  </defs>
  <path class="cls-1" d="M13.3,0c6.02,3.51,12.13,6.86,18.04,10.55,54.78,34.18,109.51,68.43,164.28,102.61,4.53,2.83,6.97,6.56,6.28,11.98-.52,4.1-3.12,6.67-6.48,8.76-21.61,13.46-43.18,26.96-64.77,40.45-37.25,23.28-74.51,46.55-111.74,69.85-3.24,2.03-6.53,3.4-10.45,2.33-4.63-1.27-7.88-5.06-8.27-9.84-.1-1.28-.1-2.57-.1-3.85C.08,159.94,.13,87.04,0,14.15-.01,7.18,2.23,2.35,8.96,0,10.41,0,11.86,0,13.3,0Z"/>
</svg>