<?xml version="1.0" encoding="UTF-8"?>
<svg id="_Слой_1" data-name="Слой 1" xmlns="http://www.w3.org/2000/svg" viewBox="0 0 501.63 485.35">
  <defs>
    <style>
      .cls-1 {
        fill: #00b0a4;
      }
    </style>
  </defs>
  <path class="cls-1" d="M89.76,467.1c1.75-10.39,3.79-22.5,5.83-34.62,6.6-39.17,13.14-78.35,19.9-117.5,.57-3.33-.42-5.24-2.61-7.4-35.51-35.04-71.01-70.09-106.31-105.34-2.92-2.92-5.43-7.11-6.27-11.09-1.83-8.69,4.81-16.64,14.29-18.06,23.48-3.51,46.98-6.88,70.46-10.32,25.99-3.81,51.96-7.7,77.96-11.41,3.38-.48,5.16-2.01,6.62-5.04,21.76-45,43.67-89.91,65.45-134.9,3-6.21,7.18-10.58,14.28-11.31,7.13-.74,13.03,3,16.72,10.57,15.49,31.76,30.93,63.55,46.39,95.33,6.4,13.17,12.95,26.27,19.11,39.54,1.66,3.58,3.69,5.3,7.66,5.87,32.84,4.68,65.64,9.58,98.46,14.41,16.49,2.43,32.99,4.77,49.47,7.29,6.68,1.02,11.49,4.65,13.61,11.27,2.2,6.88-.08,12.5-5.02,17.38-35.35,34.96-70.65,69.98-106.09,104.84-3.07,3.02-4.12,5.7-3.36,10.06,8.44,48.76,16.62,97.57,24.94,146.35,1.93,11.29-1.98,19.06-11.2,21.74-4.9,1.43-9.21,.1-13.53-2.21-43.35-23.17-86.76-46.22-130.06-69.48-3.95-2.12-6.93-2.34-11-.14-42.98,23.14-86.09,46.04-129.14,69.07-5.25,2.81-10.48,4.6-16.38,2.28-6.32-2.49-10.28-8.44-10.18-17.18Zm37.58-27.93c2.11-1.03,3.62-1.71,5.09-2.49,35.94-19.16,71.94-38.22,107.77-57.6,7.46-4.04,14.03-3.91,21.41,.07,35.55,19.18,71.25,38.09,106.9,57.09,1.7,.9,3.4,1.79,5.4,2.84,.05-1.16,.17-1.67,.09-2.14-7.11-42.16-14.14-84.33-21.44-126.45-1.28-7.37,.47-13.07,5.74-18.26,29.43-28.96,58.74-58.04,88.09-87.09,1.37-1.35,2.67-2.77,4.53-4.69-42.43-6.25-83.88-12.49-125.38-18.34-8.84-1.25-14.63-4.94-18.58-13.21-17.46-36.6-35.35-72.99-53.1-109.46-.85-1.74-1.8-3.42-3.05-5.78-1.23,2.32-2.12,3.88-2.9,5.49-17.95,36.92-35.96,73.83-53.79,110.81-3.2,6.63-7.85,10.62-15.22,11.67-23.83,3.41-47.64,6.98-71.46,10.49-18.6,2.74-37.19,5.5-55.79,8.25-.29,.41-.57,.83-.86,1.24,1.78,1.46,3.69,2.8,5.33,4.41,29.14,28.78,58.21,57.62,87.38,86.36,4.66,4.6,6.99,9.79,5.88,16.34-5.53,32.52-11.08,65.04-16.59,97.57-1.82,10.75-3.56,21.51-5.43,32.86Z"/>
</svg>