<?xml version="1.0" encoding="UTF-8"?>
<svg id="_Слой_1" data-name="Слой 1" xmlns="http://www.w3.org/2000/svg" viewBox="0 0 506.31 507.14">
  <defs>
    <style>
      .cls-1 {
        fill: #00b0a4;
      }
    </style>
  </defs>
  <path class="cls-1" d="M506.31,237.92v31.67c-.28,1.27-.72,2.54-.82,3.82-3.33,43.45-16.74,83.56-41.06,119.66-40.37,59.92-96.18,96.85-167.34,110.13-9.35,1.75-18.85,2.64-28.29,3.93h-31.67c-1.43-.29-2.85-.73-4.3-.85-48.72-3.92-93.24-19.87-131.67-49.95C25.73,397.28-8.31,319.4,1.71,223.89,8.79,156.52,40.12,101.06,92.24,58.09,174.12-9.42,287.28-19.04,379.05,34.24c67.99,39.47,109.05,98.85,123.45,176.33,1.68,9.04,2.56,18.23,3.81,27.35ZM253.21,36.67c-119.81-.32-216.89,96.55-217.31,216.84-.42,119.69,96.66,217,216.83,217.33,119.8,.33,216.9-96.56,217.31-216.85,.41-119.74-96.63-217-216.83-217.33Z"/>
  <path class="cls-1" d="M376.06,398.43c-8.16,.02-14.33-4.36-17.35-12.87-6.55-18.44-16.14-34.97-30.2-48.7-55.99-54.66-153.4-29.76-176.51,45.1-3.37,10.92-8.66,15.97-17.19,16.44-12.74,.69-22.04-10.49-18.58-22.79,9.61-34.28,29.27-61.57,59.3-80.51,44.72-28.2,92.16-32.64,140.41-10.48,39.12,17.96,63.34,50.02,77.19,90.18,4.1,11.89-4.72,23.61-17.06,23.65Z"/>
  <path class="cls-1" d="M307.34,192.22c0-13.97,11.55-25.58,25.37-25.52,13.78,.06,25.27,11.82,25.17,25.77-.1,13.67-11.54,25.2-25.17,25.35-13.67,.15-25.38-11.67-25.37-25.6Z"/>
  <path class="cls-1" d="M148.06,192.18c.02-13.92,11.65-25.57,25.44-25.48,13.81,.09,25.19,11.78,25.1,25.8-.09,13.67-11.58,25.23-25.17,25.31-13.7,.09-25.39-11.73-25.37-25.64Z"/>
</svg>