<?xml version="1.0" encoding="UTF-8"?>
<svg id="_Слой_1" data-name="Слой 1" xmlns="http://www.w3.org/2000/svg" viewBox="0 0 510.76 454.45">
  <defs>
    <style>
      .cls-1 {
        fill: #fff;
      }
    </style>
  </defs>
  <path class="cls-1" d="M510.76,423.97c-.36,1.09-.78,2.16-1.08,3.27-4.17,15.38-16.81,25.82-32.73,26.96-2.32,.17-4.65,.22-6.98,.22-143.2,0-286.4,0-429.6,.04-8.81,0-17.22-1.05-24.71-6.2-13.99-9.61-19.09-25.85-13.35-43.23,12.24-37.05,24.55-74.07,36.83-111.1,2.3-6.93,4.55-13.88,6.88-20.8,6.03-17.85,18.16-26.61,37.05-26.63,44.74-.03,89.48-.01,134.22-.01h5.28c.11-.36,.21-.71,.32-1.07-4.05-2.4-8.11-4.77-12.14-7.21-7.56-4.57-8.93-9.51-4.53-17.04,4.2-7.17,8.24-14.46,12.95-21.28,7.95-11.53,22.37-15.29,34.89-9.05,7.83,3.9,15.25,8.64,23.29,13.26,2.26-3.77,4.38-7.28,6.48-10.8,8.64-14.49,19.32-17.41,33.91-9.3,.58,.32,1.19,.58,1.95,.95,.5-.65,1.08-1.25,1.47-1.94,6.75-12.21,13.52-24.41,20.21-36.66,9.77-17.9,11.98-37,9.37-57.02-5.67-43.38,25.71-83.4,69.31-88.71,40-4.87,77.01,19.88,87.26,58.37,10.32,38.74-8.88,79.01-46.09,94.31-22.45,9.23-39.87,23.37-51.92,44.44-5.67,9.92-12.13,19.4-18.21,29.05q12.34,9.77,15.24,19.7c6.06,0,12.32,0,18.58,0,22.32,0,33.26,7.87,40.29,28.99,14.14,42.53,28.28,85.07,42.4,127.61,1.09,3.29,2.1,6.61,3.15,9.91v10.98Zm-115.59-150.15c6.43,3.81,13.01,7.61,19.5,11.57,15.15,9.28,19.18,24.99,10.38,40.39-3.3,5.77-6.73,11.46-10.12,17.18-5.41,9.13-9.6,10.2-18.7,4.83-44.49-26.27-88.96-52.58-133.52-78.74-2.56-1.5-5.84-2.49-8.8-2.5-56.55-.15-113.09-.11-169.64-.1-11.71,0-15.97,3.12-19.69,14.29-9.9,29.78-19.8,59.55-29.7,89.33-4.66,14.02-9.46,27.99-13.92,42.08-3.84,12.16,3.04,21.66,15.77,22.27,1.49,.07,2.99,.03,4.49,.03,142.69,0,285.39,0,428.08,0,1.33,0,2.66,.03,3.99-.02,13.3-.47,20.27-10.12,16.09-22.77-14.63-44.3-29.36-88.56-44.13-132.81-2.95-8.84-7.79-12.26-17.04-12.38-7.48-.1-15,.39-22.44-.15-5.8-.42-9.05,1.69-10.62,7.5Zm-21.55-56.86c6.87-10.85,13.77-21.21,20.13-31.89,13.48-22.66,32.18-39.03,56.77-48.68,13.92-5.47,25.14-14.39,32.14-27.72,11.25-21.42,10.46-42.87-3.22-62.72-13.79-20-33.48-28.62-57.86-25.2-32.9,4.61-55.5,34.31-51.01,67.09,3.46,25.22-.66,48.91-13.29,71.12-6.79,11.94-13.28,24.06-20.12,36.51,12.22,7.21,24.17,14.26,36.46,21.51Zm-146.36,7.8c58.13,34.35,115.69,68.37,173.65,102.62,1.91-3.21,3.69-6.17,5.45-9.14,5.33-9.03,4.61-11.84-4.42-17.18-50.74-29.98-101.49-59.96-152.23-89.94-1.14-.68-2.26-1.41-3.45-1.98-4.61-2.19-8.55-1.33-11.33,2.85-2.65,3.99-4.96,8.22-7.67,12.77Zm150.26,38.69c2.37-3.98,4.19-7.56,6.51-10.77,2.59-3.58,1.91-5.4-1.93-7.63-21.71-12.57-43.23-25.47-64.87-38.16-4.37-2.57-8.98-4.73-13.48-7.08-2.82,4.47-5.65,8.94-8.46,13.43-.15,.24-.08,.63-.17,1.51,27.21,16.08,54.62,32.29,82.4,48.7Z"/>
  <path class="cls-1" d="M231.24,408.93c-50.87,0-101.74,0-152.61-.03-2.3,0-4.68-.1-6.9-.65-4.88-1.22-7.51-5.01-7.27-9.91,.22-4.48,3.28-8.14,7.86-9.04,1.93-.38,3.97-.33,5.96-.33,101.9-.01,203.81-.01,305.71-.01,9.3,0,13.89,3.21,14,9.77,.12,6.71-4.71,10.19-14.15,10.19-50.87,0-101.74,0-152.61,0Z"/>
  <path class="cls-1" d="M195.35,360.4c-32.09,0-64.18,0-96.28-.02-2.15,0-4.35,0-6.46-.39-4.27-.8-7.73-4.95-7.61-9.28,.12-4.53,2.24-8.07,6.72-9.45,2.33-.72,4.92-.8,7.39-.8,64.35-.04,128.7-.03,193.05-.03,9.17,0,13.9,3.33,14.05,9.82,.15,6.77-4.5,10.14-14.09,10.14-32.26,0-64.52,0-96.78,0Z"/>
  <path class="cls-1" d="M173.62,292.16c20.13,0,40.25,0,60.38,.01,1.83,0,3.68-.04,5.47,.27,4.61,.81,7.71,4.37,8.01,8.9,.32,4.93-2.23,8.77-7.08,10.04-2.21,.58-4.59,.7-6.89,.71-39.92,.04-79.84,.03-119.76,.02-1.66,0-3.35,.07-4.98-.18-5.53-.86-9.3-5.09-9.16-10.11,.15-5.34,4.24-9.44,10.15-9.59,8.15-.21,16.3-.08,24.45-.08,13.14,0,26.28,0,39.42,0Z"/>
  <path class="cls-1" d="M479.21,77.79c-2.15,6.9-3.74,14.03-6.58,20.62-3.48,8.1-8.93,10.44-14.71,7.59-5.79-2.86-6.59-8.37-3.1-16.37,1.62-3.72,2.69-7.87,3.05-11.9,.7-7.79-2.64-13.83-9.45-17.85-1-.59-1.98-1.22-2.91-1.92-4.55-3.46-5.76-8.69-3.1-13.17,2.72-4.58,8.46-6.26,13.48-3.56,14.37,7.73,22.04,19.66,23.31,36.56Z"/>
  <path class="cls-1" d="M430.86,38.79c.06,5.39-4.28,9.86-9.7,9.98-5.67,.12-10.25-4.37-10.18-9.98,.07-5.4,4.49-9.73,9.94-9.73,5.43,0,9.88,4.36,9.95,9.74Z"/>
</svg>