<?xml version="1.0" encoding="UTF-8"?>
<svg id="_Слой_1" data-name="Слой 1" xmlns="http://www.w3.org/2000/svg" viewBox="0 0 346.23 332.23">
  <defs>
    <style>
      .cls-1 {
        fill: #01b0a4;
      }
    </style>
  </defs>
  <path class="cls-1" d="M55.12,303.91c1.5-9.05,2.94-18.01,4.48-26.95,3.35-19.5,6.73-38.99,10.15-58.47,.57-3.24-.33-5.59-2.76-7.94-19.64-18.99-39.25-38.03-58.68-57.24-11.78-11.65-10.86-30.35,1.67-41.17,5.02-4.33,11.03-6.04,17.43-6.95,26.38-3.75,52.75-7.48,79.09-11.49,1.86-.28,4.06-2.43,4.98-4.27,12.2-24.37,24.11-48.89,36.28-73.28C155.75,.1,175.11-5.02,189.22,5.52c4.1,3.07,7.53,7.71,9.88,12.33,11.98,23.52,23.56,47.24,35.13,70.96,1.6,3.27,3.59,4.73,7.29,5.23,21.46,2.94,42.87,6.18,64.3,9.33,5.42,.8,10.84,1.55,16.25,2.44,11.36,1.87,19.12,8.28,22.63,19.21,3.47,10.78,1.03,20.57-7.02,28.52-19.01,18.75-38.1,37.42-57.42,55.85-3.58,3.41-4.25,6.59-3.43,11.2,4.7,26.33,9.34,52.68,13.55,79.1,1.74,10.93-2.17,20.28-11.24,26.84-8.88,6.43-18.76,7.61-28.59,2.61-20.42-10.39-40.63-21.2-60.92-31.84-4.3-2.25-8.66-4.4-12.88-6.81-2.56-1.47-4.7-1.34-7.31,.05-24.09,12.76-48.21,25.49-72.41,38.04-16.05,8.32-34.68,.87-40.12-15.9-.91-2.8-1.2-5.8-1.78-8.76Zm24.42-.08c-.02,2.85,2.67,4.75,5.59,3.63,1.04-.4,2.02-.97,3.01-1.49,23.49-12.32,47.01-24.59,70.45-37,9.84-5.21,19.48-5.22,29.24,.08,6.35,3.44,12.78,6.72,19.18,10.08,17.63,9.27,35.23,18.59,52.93,27.73,1.38,.71,3.7,.69,5.04,0,.98-.51,1.72-2.82,1.5-4.14-4.45-26.5-8.9-53-13.7-79.44-2.12-11.64,.62-21.27,9.2-29.53,19.14-18.44,38.09-37.07,57.12-55.62,.62-.61,1.3-1.19,1.82-1.88,2.1-2.8,1.06-5.69-2.4-6.48-2.06-.47-4.18-.64-6.28-.95-23.53-3.44-47-7.3-70.6-10.15-14.32-1.73-24.04-8.01-30.24-21.34-10.74-23.13-22.39-45.84-33.82-68.65-.89-1.77-3.02-4.07-4.54-4.04-1.54,.02-3.5,2.37-4.48,4.14-2.73,4.88-5.04,10-7.52,15.02-9.37,18.97-18.81,37.91-28.09,56.94-4.54,9.31-11.69,15.11-21.89,16.78-10.81,1.77-21.67,3.2-32.51,4.77-16.26,2.36-32.54,4.63-48.77,7.16-1.92,.3-4.71,1.75-5.11,3.21-.41,1.51,1.22,4.06,2.63,5.49,7.72,7.8,15.65,15.4,23.52,23.06,11.26,10.97,22.49,21.97,33.79,32.9,6.85,6.62,10.86,14.58,9.4,24.1-3.19,20.78-6.96,41.47-10.5,62.2-1.32,7.73-2.62,15.46-3.98,23.43Z"/>
</svg>