<?xml version="1.0" encoding="UTF-8"?>
<svg id="_Слой_1" data-name="Слой 1" xmlns="http://www.w3.org/2000/svg" viewBox="0 0 582.75 582.75">
  <defs>
    <style>
      .cls-1 {
        fill: #02b0a4;
      }
    </style>
  </defs>
  <path class="cls-1" d="M291.37,0C130.5,0,0,130.5,0,291.38s130.5,291.37,291.37,291.37,291.37-130.5,291.37-291.37S452.25,0,291.37,0h0Zm143.16,199.56l-47.95,225.36c-3.4,16.06-13.02,19.85-26.29,12.4l-72.84-53.74-35.03,33.9c-3.43,4.4-8.74,7.19-14.67,7.19h-.13l5.18-74.24,135.07-121.89c5.83-5.21-1.26-8.09-9.1-2.91l-166.83,104.96-71.81-22.37c-15.57-4.95-15.96-15.57,3.27-23.15l280.89-108.26c13.02-4.82,24.41,3.17,20.11,22.89l.13-.13Zm0,0"/>
</svg>