<?xml version="1.0" encoding="UTF-8"?>
<svg id="_Слой_1" data-name="Слой 1" xmlns="http://www.w3.org/2000/svg" viewBox="0 0 487.21 313.32">
  <defs>
    <style>
      .cls-1 {
        fill: #fff;
      }
    </style>
  </defs>
  <path class="cls-1" d="M174.08,313.31c-38.79,0-77.59,.01-116.38,0C23.2,313.29,.02,290.17,.01,255.74,0,189.58,0,123.43,.02,57.27,.03,23.22,23.3,.02,57.46,.02c77.77-.02,155.54-.02,233.31,0,34.16,0,57.38,23.17,57.39,57.28,.03,66.34,.04,132.68,0,199.02-.02,33.73-23.35,56.96-57.15,56.99-38.97,.03-77.95,0-116.93,0Zm0-278.49c-39.17,0-78.33-.02-117.5,0-13.74,0-21.75,7.9-21.76,21.47-.02,66.9-.02,133.8,0,200.7,0,13.57,8.02,21.49,21.74,21.49,78.33,.02,156.66,.02,235,0,13.92,0,21.77-7.95,21.77-22.02,.02-66.54,.02-133.07,0-199.61,0-14.32-7.82-22.03-22.3-22.04-38.98-.02-77.97,0-116.95,0Z"/>
  <path class="cls-1" d="M487.18,156.75c0,31.7,.04,63.4-.02,95.11-.03,12.25-6.58,21.95-16.82,25.38-9.75,3.27-20.4,.21-26.6-8.48-24.61-34.48-49.12-69.05-73.44-103.74-7.28-10.38-6.43-22.06,1.69-32.17,23.48-29.23,47.02-58.4,70.6-87.56,7.83-9.69,17.45-12.74,27.82-9.11,10.09,3.53,16.68,13.09,16.74,24.92,.12,22.1,.04,44.2,.04,66.3,0,9.78,0,19.56,0,29.35Zm-35.03,63.99V89.38c-16.86,20.97-33.08,41.14-49.48,61.53,16.35,23.07,32.57,45.97,49.48,69.82Z"/>
</svg>