<?xml version="1.0" encoding="UTF-8"?>
<svg id="_Слой_1" data-name="Слой 1" xmlns="http://www.w3.org/2000/svg" viewBox="0 0 371.69 365.36">
  <defs>
    <style>
      .cls-1 {
        fill: #fff;
      }
    </style>
  </defs>
  <path class="cls-1" d="M179.47,66.34c0-12.33-.05-24.05,.03-35.76,.03-3.48,.02-7.05,.76-10.41,2.41-10.91,11.37-18.65,22.57-19.87,1.73-.19,3.48-.28,5.23-.28,45.16-.01,90.32-.03,135.48,0,13.37,0,23.26,6.57,26.77,18.01,.97,3.15,1.29,6.61,1.3,9.94,.09,32.81,.07,65.63,.05,98.44,0,16.1-8.56,25.9-24.49,28.16-.59,.08-1.18,.2-2.13,.36v4.16c0,47.79-.02,95.57,.07,143.36,0,2.38,.62,4.96,1.66,7.11,7.48,15.48,15.15,30.86,22.75,46.29,2.7,5.48,.37,9.32-5.75,9.51-1,.03-2,0-2.99,0-117.01,0-234.03,0-351.04,0-1,0-2,.02-2.99,0-5.82-.16-8.31-4.11-5.75-9.36,5.73-11.76,11.09-23.73,17.49-35.12,5.5-9.79,7.38-19.76,7.31-30.94-.37-63.88-.2-127.76-.17-191.65,0-16.22,10.28-28.77,25.8-31.54,2.31-.41,4.72-.38,7.08-.39,38.67-.02,77.34-.02,116.02-.02,1.47,0,2.94,0,4.94,0Zm-113.06,41.4v164.16c4.42,0,8.64-.17,12.84,.06,3.02,.17,4-.75,4.16-3.89,.73-14.32,1.64-28.64,2.76-42.94,.5-6.37,3.76-11.48,9.56-14.28,6.82-3.29,13.84-6.24,20.92-8.91,5.59-2.11,7.84-1.1,10.74,4.11,3.93,7.08,7.58,14.32,11.56,21.37,.77,1.36,2.4,2.61,3.89,3.12,2.56,.87,3.26-1.49,4.18-3.23,3.85-7.27,7.71-14.53,11.59-21.78,2.76-5.16,5.15-6.33,10.66-4.2,6.49,2.51,12.8,5.49,19.11,8.43,7.47,3.49,10.57,9.78,11,17.74,.5,9.34,1.1,18.68,1.69,28.02,.33,5.2,.73,10.39,1.1,15.62h100.24v-117.12c-1.45,0-2.67,0-3.9,0-17.84,0-35.68-.07-53.52,.1-2.01,.02-4.38,.91-5.96,2.17-10.03,8.02-19.92,16.23-29.78,24.47-2.29,1.92-4.54,2.4-7.19,1.02-2.83-1.47-3.17-3.92-2.66-6.71,.11-.61,.25-1.22,.36-1.83,1.15-6.32,2.29-12.63,3.43-18.96-16.22-2.36-25.34-13.99-24.29-29.63,.37-5.55,.06-11.15,.06-16.91H66.41Zm266.74,193.64V154.93h-17.74c0,1.79,0,3.27,0,4.76,0,38.31,0,76.62,0,114.93,0,7.63-1.3,8.94-8.86,8.94-80.85,0-161.69,0-242.54,0-7.52,0-8.82-1.32-8.82-9.01,0-56.53,0-113.05,0-169.58,0-7.88,1.23-9.1,9.15-9.1,36.68,0,73.36,0,110.04,0,1.58,0,3.15,0,4.88,0v-18.03h-4.22c-38.68,0-77.35-.01-116.03,0-14.02,0-21.83,7.8-21.84,21.75-.01,65.89,0,131.77,0,197.66,0,1.33,0,2.67,0,4.14H333.15Zm-118.21-138.68c7.25-5.94,13.78-11.12,20.1-16.56,2.73-2.35,5.59-3.29,9.17-3.28,33.3,.09,66.6,.12,99.89-.05,3.34-.02,7.02-.79,9.94-2.34,5.41-2.87,6.7-8.22,6.69-14.06-.05-30.81-.02-61.62-.03-92.43,0-2.87,.1-5.75-.11-8.6-.59-8.1-6.37-13.64-14.46-13.65-46.77-.05-93.53-.05-140.3,0-8.57,0-14.56,6.07-14.68,14.62-.07,4.99-.02,9.98-.02,14.97,0,28.44-.01,56.88,0,85.32,0,9.82,5.69,15.53,15.51,15.71,1.25,.02,2.5-.04,3.74,.02,5.38,.28,7.6,3.11,6.65,8.37-.67,3.67-1.29,7.34-2.1,11.95ZM15.3,352.9H354.72c-5.99-12.15-11.88-23.8-17.45-35.61-1.49-3.16-3.25-4.2-6.73-4.19-95.31,.1-190.62,.18-285.93-.11-7.35-.02-11.29,1.75-14.16,8.74-4.32,10.56-9.93,20.59-15.15,31.17Zm165.35-81.28h10.15c.11-.61,.24-.97,.22-1.32-.95-14.69-1.86-29.38-2.98-44.06-.12-1.54-1.12-3.68-2.36-4.36-5.5-3.03-11.23-5.63-17-8.44-3.73,6.98-7.62,13.01-10.28,19.55-3.2,7.88-8.17,10.92-16.68,10.14-4.81-.44-7.8-1.71-10.01-6.06-3.99-7.85-8.47-15.46-12.98-23.58-5.39,2.56-10.53,5.07-15.72,7.45-2.81,1.29-4.1,3.37-4.28,6.42-.62,10.59-1.33,21.17-2,31.75-.27,4.17-.52,8.35-.78,12.45h9.8c.54-6.66,1.05-13,1.57-19.34,.33-4.07,3.12-7.08,6.41-6.91,3.38,.17,5.65,3.46,5.3,7.69-.06,.75-.22,1.48-.27,2.23-.42,5.65-.83,11.29-1.24,16.9h51.46c-.3-3.57-.57-6.79-.84-10.02-.28-3.36-.6-6.71-.83-10.07-.29-4.23,1.43-6.45,5.11-6.77,4.29-.37,6.24,1.4,6.64,6.12,.56,6.69,1.07,13.38,1.61,20.23Z"/>
  <path class="cls-1" d="M170.16,163.47c-.76,9.72-4.77,19.83-13.38,27.7-8.49,7.76-19.2,7.94-27.63,.11-10.75-10-15.61-22.45-12.57-37.1,2.77-13.35,16.07-22.6,29.13-20.96,14.14,1.77,24.5,13.83,24.45,30.25Zm-42.68,.17c.26,6.3,2.87,13.27,8.83,18.68,4.58,4.15,8.8,4.1,13.2-.19,5.46-5.34,8.62-11.92,9-19.57,.46-9.31-6.68-17.14-15.44-17.29-8.44-.14-15.53,7.47-15.58,18.37Z"/>
  <path class="cls-1" d="M217.91,77.31c0-32.01,26.08-58.11,58.04-58.08,31.91,.03,58.12,26.28,58.07,58.16-.04,31.94-26.21,57.98-58.22,57.95-32.25-.03-57.89-25.74-57.9-58.04Zm58.12-46.42c-25.67-.1-46.48,20.48-46.63,46.11-.15,25.51,21.01,46.84,46.49,46.84,25.3,0,46.21-20.76,46.39-46.07,.19-25.78-20.53-46.78-46.26-46.88Z"/>
  <path class="cls-1" d="M185.51,338.77c-31.32,0-62.63,0-93.95,0-3.24,0-6.39-.18-7.55-4-1.17-3.85,.92-7.11,4.87-7.65,1.1-.15,2.24-.09,3.36-.09,62.01,0,124.02,0,186.03-.02,3.22,0,6.27,.12,8.18,3.3,2.08,3.47,.64,7.21-3.29,8.13-1.43,.33-2.97,.3-4.46,.3-31.07,.02-62.13,.01-93.2,.01Z"/>
  <path class="cls-1" d="M257.85,77.29c0-8.73,.07-17.47-.04-26.2-.04-3.12,.62-5.81,3.55-7.24,2.9-1.43,5.51-.41,7.93,1.55,11.06,8.94,22.17,17.8,33.23,26.73,3.93,3.17,4.2,6.87,.32,10.06-11.47,9.42-23.01,18.75-34.77,27.79-1.58,1.22-4.73,1.21-6.89,.68-2.7-.66-3.36-3.33-3.34-6.05,.04-9.11,.02-18.21,.02-27.32Zm31.99,.03c-6.77-5.42-13.2-10.56-20-16.01v32.04c6.91-5.54,13.33-10.69,20-16.03Z"/>
</svg>