<?xml version="1.0" encoding="UTF-8"?>
<svg id="_Слой_1" data-name="Слой 1" xmlns="http://www.w3.org/2000/svg" viewBox="0 0 1866.61 1875">
  <defs>
    <style>
      .cls-1 {
        fill: #02b0a4;
        fill-rule: evenodd;
      }
    </style>
  </defs>
  <path class="cls-1" d="M1594.65,272.48C1419.18,96.86,1185.82,.1,937.2,0,424.93,0,8,416.77,7.79,929.05c-.07,163.75,42.73,323.6,124.06,464.49L0,1875l492.69-129.2c135.75,74.01,288.59,113.02,444.14,113.09h.38c512.22,0,929.19-416.82,929.4-929.1,.1-248.26-96.48-481.7-271.96-657.31M937.21,1701.97h-.32c-138.61-.06-274.57-37.28-393.17-107.64l-28.21-16.74-292.37,76.67,78.04-284.96-18.37-29.21c-77.33-122.96-118.17-265.07-118.11-410.98,.17-425.78,346.71-772.19,772.8-772.19,206.33,.08,400.29,80.51,546.13,226.48,145.84,145.97,226.12,339.99,226.04,546.33-.18,425.82-346.71,772.24-772.48,772.24m423.72-578.36c-23.23-11.62-137.4-67.78-158.68-75.53-21.28-7.75-36.76-11.62-52.25,11.62-15.48,23.24-59.98,75.53-73.53,91.02-13.54,15.49-27.09,17.43-50.31,5.81-23.22-11.62-98.05-36.13-186.75-115.22-69.03-61.55-115.65-137.59-129.19-160.82-13.55-23.24-1.44-35.81,10.18-47.38,10.45-10.4,23.22-27.11,34.83-40.67,11.61-13.56,15.48-23.24,23.22-38.73,7.74-15.5,3.87-29.05-1.93-40.68-5.81-11.62-52.25-125.89-71.6-172.37-18.85-45.27-38-39.14-52.25-39.85-13.53-.68-29.03-.82-44.51-.82s-40.64,5.81-61.92,29.05c-21.28,23.24-81.28,79.41-81.28,193.67s83.21,224.66,94.82,240.15c11.61,15.49,163.75,249.99,396.71,350.54,55.4,23.92,98.66,38.2,132.39,48.91,55.63,17.67,106.26,15.17,146.27,9.2,44.62-6.66,137.39-56.16,156.75-110.39,19.35-54.23,19.35-100.71,13.55-110.39-5.8-9.68-21.28-15.49-44.51-27.12"/>
</svg>