<?xml version="1.0" encoding="UTF-8"?>
<svg id="_Слой_1" data-name="Слой 1" xmlns="http://www.w3.org/2000/svg" viewBox="0 0 589.5 589.5">
  <defs>
    <style>
      .cls-1 {
        fill: #fff;
      }
    </style>
  </defs>
  <path class="cls-1" d="M294.75,0C132.2,0,0,132.2,0,294.75c-.2,62.19,19.55,122.62,56.05,172.72l-36.65,109.55,113.18-36.25c48.19,31.83,104.59,48.93,162.16,48.73,162.55,0,294.75-132.2,294.75-294.75S457.31,0,294.75,0h0Zm171.54,416.24c-7.08,20.14-35.32,36.65-57.77,41.61-15.52,3.29-35.47,5.94-103.21-22.26-86.76-35.86-142.41-123.75-146.79-129.54-4.22-5.75-34.93-46.62-34.93-89.02s21.47-62.73,30.11-71.57c7.07-7.32,18.82-10.56,30.12-10.56,3.63,0,6.93,0,9.77,.2,8.65,.39,13.07,.98,18.82,14.59,7.12,17.1,24.37,59.49,26.48,63.72,2.11,4.42,4.23,10.36,1.18,16.11-2.7,5.75-5.21,8.45-9.43,13.41-4.42,5.01-8.6,8.84-12.82,14.2-4.03,4.82-8.45,9.83-3.49,18.42,5.01,8.45,22.25,36.65,47.8,59.29,32.82,29.38,59.49,38.76,69.07,42.84,7.12,2.85,15.57,2.06,20.73-3.29,6.73-7.27,14.79-19.01,23.04-30.51,5.94-8.45,13.41-9.38,21.27-6.53,7.91,2.9,50.11,23.63,58.75,27.85,8.65,4.37,14.39,6.48,16.31,10.17,2.11,3.64,2.11,20.68-5.01,40.87h0Zm0,0"/>
</svg>